<?xml version="1.0" encoding="utf-8"?>
<!-- Generator: Adobe Illustrator 19.0.0, SVG Export Plug-In . SVG Version: 6.00 Build 0)  -->
<svg version="1.0" id="Layer_1" xmlns="http://www.w3.org/2000/svg" xmlns:xlink="http://www.w3.org/1999/xlink" x="0px" y="0px"
	 viewBox="0 0 30.6 32.5" enable-background="new 0 0 30.6 32.5" xml:space="preserve">
<path id="XMLID_44_" fill="#FFFFFF" d="M41.5-44.5c0-1.7,1.2-3.7,2.6-4.5l9.6-5.6c1.4-0.8,3.8-0.8,5.2,0l9.6,5.6
	c1.4,0.8,2.6,2.8,2.6,4.5v11.1c0,1.7-1.2,3.7-2.6,4.5l-9.6,5.6c-1.4,0.8-3.8,0.8-5.2,0l-9.6-5.6c-1.4-0.8-2.6-2.8-2.6-4.5V-44.5z"/>
<g id="XMLID_40_">
	<circle id="XMLID_43_" fill="#2D2D2D" cx="50.1" cy="-45.1" r="2"/>
	<rect id="XMLID_42_" x="48.4" y="-41.7" fill="#2D2D2D" width="3.4" height="10.9"/>
	<path id="XMLID_41_" fill="#2D2D2D" d="M60.4-41.9c-1.6,0-2.8,0.9-3.2,1.8h0v-1.5h-3.3l0,0v10.9h3.4v-5.4c0-1.4,0.3-2.8,2-2.8
		c1.7,0,1.8,1.6,1.8,2.9v5.3h3.4v-6C64.5-39.7,63.9-41.9,60.4-41.9z"/>
</g>
<path id="XMLID_46_" fill="#FFFFFF" d="M27.2,6.2l-9.7-5.6c-1.4-0.8-3.8-0.8-5.2,0L2.6,6.2C1.2,7,0,9,0,10.7v11.1
	c0,1.7,1.2,3.7,2.6,4.5l9.6,5.6c1.4,0.8,3.8,0.8,5.2,0l9.8-5.6c1.4-0.8,2.8-2.8,2.8-4.5V10.7C30,9,28.7,7,27.2,6.2z M6,13.7
	c0,0.3,0.5,0.6,0.9,0.9c1.4,1,2.7,1.8,3.6,2.4L6,21.5V13.7z M22.3,23H7.4c-0.4,0-0.8,0.1-1.1-0.2l5.1-5.1c0.1,0.1,0.2,0.2,0.4,0.3
	c0.4,0.3,0.7,0.5,0.9,0.7c0.2,0.2,0.6,0.1,1,0.3c0.4,0.2,0.8,0,1.1,0h0h0c0.3,0,0.7,0.2,1.1,0c0.4-0.2,0.7-0.2,1-0.4
	c0.2-0.2,0.6-0.3,0.9-0.6c0.1-0.1,0.2-0.1,0.4-0.2l5.1,5C23,23,22.7,23,22.3,23z M24,21.5L19.4,17c1-0.7,2.2-1.5,3.5-2.4
	c0.4-0.3,1-0.6,1-0.9V21.5z M23.4,12.3c-0.3,0.5-0.7,0.9-1.2,1.2c-1.6,1.1-2.9,2-3.7,2.6c-0.5,0.3-0.8,0.6-1,0.7
	c0,0-0.1,0.1-0.2,0.1C17.2,17,17.1,17,17,17.1c-0.2,0.2-0.4,0.3-0.5,0.4c-0.1,0.1-0.3,0.2-0.5,0.3s-0.4,0.1-0.6,0.2
	c-0.2,0.1-0.4,0-0.5,0h0h0c-0.2,0-0.3,0.1-0.5,0c-0.2-0.1-0.4-0.1-0.6-0.2c-0.2-0.1-0.4-0.2-0.5-0.3c-0.1-0.1-0.3-0.2-0.5-0.4
	c-0.1-0.1-0.2-0.1-0.3-0.2c-0.1,0-0.1-0.1-0.2-0.1c-0.3-0.2-0.6-0.4-1-0.7c-0.5-0.3-1-0.7-1.6-1.1c-1.2-0.8-1.8-1.3-2.1-1.4
	c-0.4-0.3-0.8-0.7-1.2-1.2c-0.4-0.5-0.6-1-0.6-1.4c0-0.5,0.1-1,0.4-1.4C6.4,9.2,6.8,9,7.4,9h14.9c0.4,0,0.8,0.2,1.1,0.5
	c0.3,0.3,0.5,0.7,0.5,1.2C23.9,11.2,23.7,11.8,23.4,12.3z"/>
</svg>
