<?xml version="1.0" encoding="utf-8"?>
<!-- Generator: Adobe Illustrator 19.0.0, SVG Export Plug-In . SVG Version: 6.00 Build 0)  -->
<svg version="1.0" id="Layer_1" xmlns="http://www.w3.org/2000/svg" xmlns:xlink="http://www.w3.org/1999/xlink" x="0px" y="0px"
	 viewBox="0 0 30.6 32.5" enable-background="new 0 0 30.6 32.5" xml:space="preserve">
<path id="XMLID_60_" fill="#FFFFFF" d="M27.2,6.2l-9.7-5.6c-1.4-0.8-3.8-0.8-5.2,0L2.6,6.2C1.2,7,0,9,0,10.7v11.1
	c0,1.7,1.2,3.7,2.6,4.5l9.6,5.6c1.4,0.8,3.8,0.8,5.2,0l9.8-5.6c1.4-0.8,2.8-2.8,2.8-4.5V10.7C30,9,28.7,7,27.2,6.2z M19,10.3l-1.6,0
	c-1.3,0-1.4,0.6-1.4,1.5V14h3.3l0,3H16v8h-3v-8h-3v-3h3v-2.5c0-2.7,1.4-4.2,3.8-4.2l2.2,0V10.3z"/>
<path id="XMLID_59_" fill="#FFFFFF" d="M1.5-44.5c0-1.7,1.2-3.7,2.6-4.5l9.6-5.6c1.4-0.8,3.8-0.8,5.2,0l9.6,5.6
	c1.4,0.8,2.6,2.8,2.6,4.5v11.1c0,1.7-1.2,3.7-2.6,4.5l-9.6,5.6c-1.4,0.8-3.8,0.8-5.2,0l-9.6-5.6c-1.4-0.8-2.6-2.8-2.6-4.5V-44.5z"/>
<g id="XMLID_45_">
	<path id="XMLID_53_" fill="#2D2D2D" d="M24-38.8c-0.2-0.8-0.9-1.5-1.7-1.6c-2-0.2-4-0.2-5.9-0.2c-2,0-4,0-5.9,0.2
		c-0.8,0.1-1.5,0.7-1.7,1.6c-0.3,1.2-0.3,2.5-0.3,3.8c0,1.2,0,2.5,0.3,3.7c0.2,0.8,0.9,1.5,1.7,1.6c2,0.2,4,0.2,5.9,0.2
		c2,0,4,0,5.9-0.2c0.8-0.1,1.5-0.7,1.7-1.6c0.3-1.2,0.3-2.5,0.3-3.7C24.3-36.3,24.3-37.6,24-38.8z M12.9-37.9h-1.1v6.1h-1.1v-6.1
		H9.6v-1h3.3V-37.9z M15.8-31.8h-1v-0.6c-0.4,0.4-0.7,0.6-1.1,0.6c-0.3,0-0.5-0.1-0.6-0.4c-0.1-0.2-0.1-0.4-0.1-0.8v-4.2h1v3.9
		c0,0.2,0,0.3,0,0.4c0,0.1,0.1,0.2,0.2,0.2c0.2,0,0.4-0.1,0.6-0.4v-4h1V-31.8z M19.5-33.4c0,0.5,0,0.8-0.1,1.1
		c-0.1,0.4-0.4,0.6-0.8,0.6c-0.3,0-0.7-0.2-1-0.6v0.5h-1v-7.1h1v2.3c0.3-0.4,0.6-0.6,1-0.6c0.4,0,0.6,0.2,0.8,0.6
		c0.1,0.2,0.1,0.6,0.1,1.1V-33.4z M23.1-34.2h-1.9v0.9c0,0.5,0.2,0.7,0.5,0.7c0.2,0,0.4-0.1,0.4-0.4c0-0.1,0-0.3,0-0.6h1v0.1
		c0,0.3,0,0.5,0,0.6c0,0.2-0.1,0.4-0.2,0.6c-0.3,0.4-0.7,0.6-1.2,0.6c-0.5,0-0.9-0.2-1.2-0.5c-0.2-0.3-0.3-0.7-0.3-1.2v-1.9
		c0-0.6,0.1-1,0.3-1.2c0.3-0.4,0.7-0.5,1.1-0.5c0.5,0,0.9,0.2,1.1,0.5c0.2,0.3,0.3,0.7,0.3,1.2V-34.2z"/>
	<path id="XMLID_52_" fill="#2D2D2D" d="M21.6-36.3c-0.3,0-0.5,0.2-0.5,0.7v0.5h1v-0.5C22.1-36,22-36.3,21.6-36.3z"/>
	<path id="XMLID_51_" fill="#2D2D2D" d="M18.1-36.3c-0.2,0-0.3,0.1-0.5,0.2v3.2c0.2,0.2,0.3,0.2,0.5,0.2c0.3,0,0.4-0.2,0.4-0.7v-2.3
		C18.5-36,18.4-36.3,18.1-36.3z"/>
	<path id="XMLID_50_" fill="#2D2D2D" d="M18.6-41.1c0.4,0,0.7-0.2,1.1-0.7v0.6h1v-5.3h-1v4.1c-0.2,0.3-0.4,0.5-0.6,0.5
		c-0.1,0-0.2-0.1-0.2-0.2c0,0,0-0.2,0-0.4v-3.9h-1v4.2c0,0.4,0,0.6,0.1,0.8C18.1-41.2,18.3-41.1,18.6-41.1z"/>
	<path id="XMLID_49_" fill="#2D2D2D" d="M11.9-44.1v2.9h1.1v-2.9l1.3-4.3h-1.1l-0.7,2.8l-0.8-2.8h-1.1c0.2,0.7,0.5,1.3,0.7,2
		C11.6-45.3,11.8-44.6,11.9-44.1z"/>
	<path id="XMLID_46_" fill="#2D2D2D" d="M15.7-41.1c0.5,0,0.9-0.2,1.1-0.5c0.2-0.3,0.3-0.7,0.3-1.3v-1.9c0-0.6-0.1-1-0.3-1.3
		c-0.3-0.4-0.6-0.5-1.1-0.5c-0.5,0-0.9,0.2-1.1,0.5c-0.2,0.3-0.3,0.7-0.3,1.3v1.9c0,0.6,0.1,1,0.3,1.3
		C14.8-41.3,15.2-41.1,15.7-41.1z M15.2-44.9c0-0.5,0.2-0.7,0.5-0.7c0.3,0,0.5,0.2,0.5,0.7v2.2c0,0.5-0.1,0.7-0.5,0.7
		c-0.3,0-0.5-0.2-0.5-0.7V-44.9z"/>
</g>
<path id="XMLID_44_" fill="#FFFFFF" d="M41.5-44.5c0-1.7,1.2-3.7,2.6-4.5l9.6-5.6c1.4-0.8,3.8-0.8,5.2,0l9.6,5.6
	c1.4,0.8,2.6,2.8,2.6,4.5v11.1c0,1.7-1.2,3.7-2.6,4.5l-9.6,5.6c-1.4,0.8-3.8,0.8-5.2,0l-9.6-5.6c-1.4-0.8-2.6-2.8-2.6-4.5V-44.5z"/>
<g id="XMLID_40_">
	<circle id="XMLID_43_" fill="#2D2D2D" cx="50.1" cy="-45.1" r="2"/>
	<rect id="XMLID_42_" x="48.4" y="-41.7" fill="#2D2D2D" width="3.4" height="10.9"/>
	<path id="XMLID_41_" fill="#2D2D2D" d="M60.4-41.9c-1.6,0-2.8,0.9-3.2,1.8h0v-1.5h-3.3l0,0v10.9h3.4v-5.4c0-1.4,0.3-2.8,2-2.8
		c1.7,0,1.8,1.6,1.8,2.9v5.3h3.4v-6C64.5-39.7,63.9-41.9,60.4-41.9z"/>
</g>
<path id="XMLID_39_" fill="#FFFFFF" d="M81.5-44.5c0-1.7,1.2-3.7,2.6-4.5l9.6-5.6c1.4-0.8,3.8-0.8,5.2,0l9.6,5.6
	c1.4,0.8,2.6,2.8,2.6,4.5v11.1c0,1.7-1.2,3.7-2.6,4.5l-9.6,5.6c-1.4,0.8-3.8,0.8-5.2,0l-9.6-5.6c-1.4-0.8-2.6-2.8-2.6-4.5V-44.5z"/>
<g id="XMLID_28_">
	<g id="XMLID_29_">
		<path id="XMLID_38_" fill="#2D2D2D" d="M103.8-31.8c0.4,0,0.8-0.1,1.1-0.4l-5.1-5.1c-0.1,0.1-0.2,0.2-0.4,0.3
			c-0.4,0.3-0.7,0.5-0.9,0.7c-0.2,0.2-0.6,0.3-1,0.5c-0.4,0.2-0.8,0.2-1.1,0.2h0h0c-0.3,0-0.7-0.1-1.1-0.2c-0.4-0.2-0.7-0.3-1-0.5
			c-0.2-0.2-0.6-0.4-0.9-0.7c-0.1-0.1-0.2-0.2-0.4-0.3l-5.1,5.1c0.3,0.3,0.7,0.4,1.1,0.4H103.8z"/>
		<path id="XMLID_37_" fill="#2D2D2D" d="M88.3-40.6c-0.4-0.3-0.7-0.6-1-0.9v7.8l4.5-4.5C90.9-38.8,89.7-39.6,88.3-40.6z"/>
		<path id="XMLID_33_" fill="#2D2D2D" d="M104.4-40.6c-1.4,0.9-2.6,1.7-3.5,2.4l4.5,4.5v-7.8C105.1-41.1,104.8-40.8,104.4-40.6z"/>
		<path id="XMLID_32_" fill="#2D2D2D" d="M103.8-46.1H88.9c-0.5,0-0.9,0.2-1.2,0.5c-0.3,0.4-0.4,0.8-0.4,1.3c0,0.4,0.2,0.9,0.6,1.4
			c0.4,0.5,0.8,0.9,1.2,1.2c0.2,0.2,0.9,0.6,2.1,1.4c0.6,0.4,1.2,0.8,1.6,1.1c0.4,0.3,0.7,0.5,1,0.7c0,0,0.1,0.1,0.2,0.1
			c0.1,0.1,0.2,0.1,0.3,0.2c0.2,0.2,0.4,0.3,0.5,0.4c0.1,0.1,0.3,0.2,0.5,0.3c0.2,0.1,0.4,0.2,0.6,0.3C96-37,96.2-37,96.3-37h0h0
			c0.2,0,0.3,0,0.5-0.1c0.2-0.1,0.4-0.2,0.6-0.3c0.2-0.1,0.4-0.2,0.5-0.3c0.1-0.1,0.3-0.2,0.5-0.4c0.1-0.1,0.2-0.1,0.3-0.2
			c0.1,0,0.1-0.1,0.2-0.1c0.2-0.2,0.6-0.4,1-0.7c0.8-0.6,2.1-1.4,3.7-2.6c0.5-0.3,0.9-0.8,1.2-1.2c0.3-0.5,0.5-1,0.5-1.5
			c0-0.4-0.2-0.8-0.5-1.1C104.6-45.9,104.2-46.1,103.8-46.1z"/>
	</g>
</g>
</svg>
