<?xml version="1.0" encoding="utf-8"?>
<!-- Generator: Adobe Illustrator 19.0.0, SVG Export Plug-In . SVG Version: 6.00 Build 0)  -->
<svg version="1.0" id="Layer_1" xmlns="http://www.w3.org/2000/svg" xmlns:xlink="http://www.w3.org/1999/xlink" x="0px" y="0px"
	 viewBox="0 0 85 85" style="enable-background:new 0 0 85 85;" xml:space="preserve">
<style type="text/css">
	.st0{fill:#EE2438;}
</style>
<g id="XMLID_40_">
	<path id="XMLID_2_" class="st0" d="M42.5,83.5c-22.6,0-41-18.4-41-41s18.4-41,41-41s41,18.4,41,41S65.1,83.5,42.5,83.5z M42.5,3.5
		c-21.5,0-39,17.5-39,39s17.5,39,39,39s39-17.5,39-39S64,3.5,42.5,3.5z"/>
</g>
<g id="XMLID_88_">
	<path id="XMLID_96_" class="st0" d="M57.5,33.5l-6.4-5.3c-0.3-0.3-0.8-0.3-1.2,0l-6.4,5.3c-0.2,0.2-0.3,0.4-0.3,0.7V60
		c0,0.5,0.4,0.9,0.9,0.9h12.8c0.5,0,0.9-0.4,0.9-0.9V34.2C57.9,33.9,57.7,33.6,57.5,33.5z M56,59.1H45.1V34.6l5.4-4.5l5.4,4.5V59.1z
		"/>
	<path id="XMLID_72_" class="st0" d="M44.2,31.2c0.2,0,0.4-0.1,0.6-0.2l5.8-4.8l5.8,4.8c0.4,0.3,1,0.3,1.3-0.1
		c0.3-0.4,0.3-1-0.1-1.3l-6.4-5.3c-0.3-0.3-0.8-0.3-1.2,0l-6.4,5.3c-0.4,0.3-0.4,0.9-0.1,1.3C43.7,31.1,43.9,31.2,44.2,31.2
		L44.2,31.2z"/>
	<path id="XMLID_92_" class="st0" d="M41.4,44.1L35,38.8c-0.3-0.3-0.8-0.3-1.2,0l-6.4,5.3c-0.2,0.2-0.3,0.4-0.3,0.7V60
		c0,0.5,0.4,0.9,0.9,0.9h12.8c0.5,0,0.9-0.4,0.9-0.9V44.8C41.7,44.5,41.6,44.3,41.4,44.1L41.4,44.1z M39.9,59.1H29V45.3l5.4-4.5
		l5.4,4.5V59.1z"/>
	<path id="XMLID_69_" class="st0" d="M28.6,41.7l5.8-4.8l5.8,4.8c0.2,0.1,0.4,0.2,0.6,0.2c0.3,0,0.5-0.1,0.7-0.3
		c0.3-0.4,0.3-1-0.1-1.3L35,35c-0.3-0.3-0.8-0.3-1.2,0l-6.4,5.3c-0.4,0.3-0.4,0.9-0.1,1.3C27.7,42,28.3,42,28.6,41.7z"/>
	<path id="XMLID_68_" class="st0" d="M33.5,46.1V53l-0.4-0.4c-0.4-0.4-0.9-0.4-1.3,0c-0.4,0.4-0.4,0.9,0,1.3l1.8,1.8
		c0.2,0.2,0.5,0.3,0.8,0.3s0.6-0.1,0.8-0.3l1.8-1.8c0.4-0.4,0.4-0.9,0-1.3c-0.4-0.4-0.9-0.4-1.3,0L35.4,53v-6.9
		c0-0.5-0.4-0.9-0.9-0.9C33.9,45.2,33.5,45.6,33.5,46.1L33.5,46.1z"/>
	<path id="XMLID_67_" class="st0" d="M49.7,43.8l-1.8,1.8c-0.4,0.4-0.4,0.9,0,1.3c0.4,0.4,0.9,0.4,1.3,0l0.4-0.4v6.9
		c0,0.5,0.4,0.9,0.9,0.9s0.9-0.4,0.9-0.9v-6.9l0.4,0.4c0.2,0.2,0.4,0.3,0.7,0.3c0.2,0,0.5-0.1,0.7-0.3c0.4-0.4,0.4-0.9,0-1.3
		l-1.8-1.8C50.9,43.4,50.2,43.4,49.7,43.8L49.7,43.8z"/>
</g>
</svg>
