<?xml version="1.0" encoding="utf-8"?>
<!-- Generator: Adobe Illustrator 19.0.0, SVG Export Plug-In . SVG Version: 6.00 Build 0)  -->
<svg version="1.0" id="Layer_1" xmlns="http://www.w3.org/2000/svg" xmlns:xlink="http://www.w3.org/1999/xlink" x="0px" y="0px"
	 viewBox="0 0 85 85" style="enable-background:new 0 0 85 85;" xml:space="preserve">
<style type="text/css">
	.st0{fill:none;stroke:#EE2438;stroke-width:2;stroke-miterlimit:10;}
</style>
<circle id="XMLID_138_" class="st0" cx="42.5" cy="42.5" r="40"/>
<g id="XMLID_128_">
	<path id="XMLID_137_" class="st0" d="M40.4,56.8c-0.7,0.5-1.2,1.3-1.2,2.2c0,0.5,0.2,1,0.5,1.5l2.8,3.8l2.8-3.8
		c0.3-0.4,0.5-0.9,0.5-1.5c0-0.9-0.5-1.7-1.2-2.2"/>
	<polyline id="XMLID_134_" class="st0" points="38,40.8 32.4,45.7 32.4,55 38,50 	"/>
	<polygon id="XMLID_133_" class="st0" points="42.5,20.8 38.1,26.7 38.1,51.6 42.5,51.6 46.9,51.6 46.9,26.7 	"/>
	<polyline id="XMLID_132_" class="st0" points="47,40.8 52.6,45.7 52.6,55 47,50 	"/>
	<line id="XMLID_129_" class="st0" x1="38.1" y1="40.8" x2="46.9" y2="40.8"/>
</g>
</svg>
