<?xml version="1.0" encoding="utf-8"?>
<!-- Generator: Adobe Illustrator 19.0.0, SVG Export Plug-In . SVG Version: 6.00 Build 0)  -->
<svg version="1.0" id="Layer_1" xmlns="http://www.w3.org/2000/svg" xmlns:xlink="http://www.w3.org/1999/xlink" x="0px" y="0px"
	 viewBox="0 0 85 85" style="enable-background:new 0 0 85 85;" xml:space="preserve">
<style type="text/css">
	.st0{fill:none;stroke:#EE2438;stroke-width:2;stroke-miterlimit:10;}
	.st1{fill:#EE2438;}
</style>
<circle id="XMLID_40_" class="st0" cx="42.5" cy="42.5" r="40"/>
<g id="XMLID_35_">
	<path id="XMLID_37_" class="st1" d="M44.9,64.5l-11-1.4c-0.2,0-0.3-0.1-0.5-0.2l-1.3-1.2c-0.2-0.2-0.3-0.4-0.3-0.7
		c0-1.2,0-2.3,0.1-3.5c0.1-1,0.1-2.1,0.1-3.2c0-6.2-3.1-9.8-3.2-9.8c-1.9-2.6-3-5.7-3-9c0-8.2,6.3-14.7,14.4-14.9
		c0,0,10.7-1.2,15.9,8.1c1.3,2.2,1.3,4.8,1.3,7.1c0,2,0.3,4,0.7,5.8c0.1,0.4,1.2,2.9,1,4.3c0,0.3-1,1.7-3.6,1.8c0,0,0.3,1.4-0.3,2.1
		c-0.2,0.2-0.4,0.4-0.7,0.5c0.3,0.3,0.4,0.7,0.3,1.3c-0.1,0.6-0.7,0.8-0.9,1c-0.2,0.2,0,1.5,0,1.9c0.2,1.2,0.6,3.3-2.3,3.8
		c-0.6,0.1-3.7-0.5-4.8,0.9c-0.7,0.9-1,2.5-1,3.9C45.9,63.1,46.1,64.6,44.9,64.5z M34.5,61.2l9.5,1.3c0.1-1.6,0.6-3.3,1.3-4.4
		c1.7-2.5,5.5-1.6,6-1.7c1-0.2,1-0.3,0.7-1.7c-0.1-0.5-0.5-2.9,0.5-3.6c-0.3-0.2-0.6-0.4-0.8-0.8c-0.2-0.4-0.1-0.9,0.3-1.1
		c0.3-0.2,1.5-0.6,1.6-0.6c0-0.1-0.4-1.6,0.7-2.5c0.7-0.5,2.6-0.4,2.8-1c0.1-0.1-0.9-2.7-1-3.3c-0.4-1.9-0.7-4-0.7-6.2
		c0-2.2-0.1-4.3-1.1-6.2c-3.9-7.6-14-7.1-14.1-7.1c-7.1,0.1-12.7,5.8-12.7,13c0,2.9,0.9,5.7,2.7,8c0,0,3.5,4,3.5,10.8
		c0,1.2-0.1,2.3-0.1,3.4c-0.1,1-0.1,2-0.1,3L34.5,61.2z"/>
	<path id="XMLID_36_" class="st1" d="M41.5,42.6l-1.7-0.9l3.1-5.8h-3.6c-0.3,0-0.6-0.2-0.8-0.5c-0.2-0.3-0.2-0.6,0-0.9l3.7-6.5
		l1.6,0.9L41,34.1h3.5c0.3,0,0.6,0.2,0.8,0.5c0.2,0.3,0.2,0.6,0,0.9L41.5,42.6z"/>
</g>
</svg>
