<?xml version="1.0" encoding="utf-8"?>
<!-- Generator: Adobe Illustrator 19.0.0, SVG Export Plug-In . SVG Version: 6.00 Build 0)  -->
<svg version="1.0" id="Layer_1" xmlns="http://www.w3.org/2000/svg" xmlns:xlink="http://www.w3.org/1999/xlink" x="0px" y="0px"
	 viewBox="0 0 85 85" style="enable-background:new 0 0 85 85;" xml:space="preserve">
<style type="text/css">
	.st0{fill:#EE2438;}
</style>
<g id="XMLID_40_">
	<path id="XMLID_2_" class="st0" d="M42.5,83.5c-22.6,0-41-18.4-41-41s18.4-41,41-41s41,18.4,41,41S65.1,83.5,42.5,83.5z M42.5,3.5
		c-21.5,0-39,17.5-39,39s17.5,39,39,39s39-17.5,39-39S64,3.5,42.5,3.5z"/>
</g>
<g id="XMLID_5_">
	<path id="XMLID_10_" class="st0" d="M56.9,44.3c0-0.2-0.1-0.5-0.3-0.6l-0.3-0.3l0.3-0.3c0.2-0.2,0.3-0.4,0.3-0.6v-3.2l10.5-10.5
		l-1.3-1.3l-5.7,5.7l-8.6-8.6l5.7-5.7l-1.3-1.3L45.7,28.1h-3.2c-0.2,0-0.5,0.1-0.6,0.3l-0.3,0.3l-0.3-0.3L41,28l-3.3-3.3
		c-0.2-0.2-0.4-0.3-0.6-0.3h-1.4l-6.9-6.9l-1.3,1.3l2.1,2.1l-8.6,8.6l-2.1-2.1l-1.3,1.3l6.9,6.9v5c0,0.2,0.1,0.5,0.3,0.6l2.4,2.4
		v2.9l-9.6,9.6l1.3,1.3l4.8-4.8l8.6,8.6l-4.8,4.8l1.3,1.3l9.6-9.6h3.2c0.2,0,0.5-0.1,0.6-0.3l0.6-0.6h2.9l10.5,10.5l1.3-1.3
		l-5.7-5.7l8.6-8.6l5.7,5.7l1.3-1.3L56.9,45.7V44.3z M50.6,25.8l8.6,8.6L56,37.6L47.4,29L50.6,25.8z M45.7,29.9l9.4,9.4v2.9
		L42.9,29.9H45.7z M55.1,44.7v1.1l-9.4,9.4h-2.9L38,50.2v-1.1l1.2,1.2l1.3-1.3L30.2,38.8c-0.2-0.2-0.3-0.4-0.3-0.7c0-0.6,0.5-1,1-1
		c0.3,0,0.5,0.1,0.7,0.3l6.6,6.6l1.3-1.3l-6.6-6.6c-0.2-0.2-0.3-0.4-0.3-0.7c0-0.6,0.5-1,1-1c0.3,0,0.5,0.1,0.7,0.3l6.6,6.6l1.3-1.3
		l-6.6-6.6c-0.2-0.2-0.3-0.4-0.3-0.7c0-0.6,0.5-1,1-1c0.3,0,0.5,0.1,0.7,0.3l6.6,6.6l1.3-1.3l-6.6-6.6C38.1,30.5,38,30.3,38,30
		c0-0.6,0.5-1,1-1c0.3,0,0.5,0.1,0.7,0.3l0.3,0.3L55.1,44.7z M30.8,22.2l3.2,3.2L25.4,34l-3.2-3.2L30.8,22.2z M26.3,35.7l9.4-9.4
		h1.1l1.1,1.1c-1,0.4-1.6,1.4-1.7,2.5c-1.5,0.1-2.6,1.2-2.7,2.7c-1.5,0.1-2.6,1.2-2.7,2.7c-1.5,0.1-2.7,1.3-2.7,2.8
		c0,0.7,0.3,1.5,0.8,2l0.6,0.6l-1.4,1.4l-1.8-1.8V35.7z M33.5,60.1l-8.6-8.6l3.2-3.2l8.6,8.6L33.5,60.1z M38.4,56L29,46.6v-2.9
		l1.8-1.8l5.4,5.4v3.2c0,0.2,0.1,0.5,0.3,0.6l4.8,4.8H38.4z M50.6,59.2L47.4,56l8.6-8.6l3.2,3.2L50.6,59.2z"/>
	
		<rect id="XMLID_9_" x="53.8" y="50.6" transform="matrix(-0.7071 0.7071 -0.7071 -0.7071 130.4505 48.9487)" class="st0" width="2.5" height="1.8"/>
	
		<rect id="XMLID_8_" x="31.7" y="54.7" transform="matrix(-0.7071 0.7071 -0.7071 -0.7071 95.2557 72.5181)" class="st0" width="1.8" height="2.5"/>
	
		<rect id="XMLID_7_" x="28.6" y="25.4" transform="matrix(-0.7071 0.7071 -0.7071 -0.7071 69.6701 23.7721)" class="st0" width="2.5" height="1.8"/>
	
		<rect id="XMLID_6_" x="50.6" y="28.6" transform="matrix(-0.7071 0.7071 -0.7071 -0.7071 109.0519 14.6532)" class="st0" width="1.8" height="2.5"/>
</g>
</svg>
