<?xml version="1.0" encoding="utf-8"?>
<!-- Generator: Adobe Illustrator 19.0.0, SVG Export Plug-In . SVG Version: 6.00 Build 0)  -->
<svg version="1.0" id="Layer_1" xmlns="http://www.w3.org/2000/svg" xmlns:xlink="http://www.w3.org/1999/xlink" x="0px" y="0px"
	 viewBox="0 0 85 85" style="enable-background:new 0 0 85 85;" xml:space="preserve">
<style type="text/css">
	.st0{fill:#EE2438;}
</style>
<g id="XMLID_103_">
	<path id="XMLID_13_" class="st0" d="M42.5,83.5c-22.6,0-41-18.4-41-41s18.4-41,41-41s41,18.4,41,41S65.1,83.5,42.5,83.5z M42.5,3.5
		c-21.5,0-39,17.5-39,39s17.5,39,39,39s39-17.5,39-39S64,3.5,42.5,3.5z"/>
</g>
<g>
	<path class="st0" d="M31.3,25.8c0.3,1,1.3,1.6,2.3,1.6h6.2c1,0,1.9-0.7,2.3-1.6c0.3-0.9,1.3-3,2.1-3.7c0.7-0.6,1-1.5,0.8-2.4
		c-0.2-0.9-0.8-1.5-1.6-1.8c-2.5-0.8-4.7-0.6-6.4,0.8c-0.3,0.2-0.7,0.2-1,0c-1.7-1.4-3.9-1.6-6.4-0.8c-0.8,0.3-1.4,1-1.6,1.8
		c-0.2,0.9,0.2,1.8,0.8,2.4C29.7,22.9,31.1,25.1,31.3,25.8z M29.6,20.1c0-0.2,0.1-0.4,0.5-0.6c0.8-0.3,1.5-0.4,2.2-0.4
		c1,0,1.9,0.3,2.7,0.9c0.9,0.7,2.2,0.7,3.1,0c1.3-1,2.9-1.2,4.9-0.5c0.4,0.1,0.5,0.4,0.5,0.6c0.1,0.3-0.1,0.6-0.3,0.8
		c-1.3,1.1-2.4,3.8-2.6,4.4c-0.1,0.3-0.4,0.5-0.7,0.5h-6.2c-0.3,0-0.6-0.2-0.7-0.5c-0.3-1-1.9-3.5-3-4.4
		C29.6,20.6,29.5,20.3,29.6,20.1z"/>
	<path id="XMLID_9_" class="st0" d="M43.8,29.1c0-0.5-0.4-0.8-0.8-0.8c-0.2,0-0.3,0.1-0.4,0.1c-0.1-0.1-0.3-0.1-0.4-0.1h-10
		c-0.5,0-0.8,0.4-0.8,0.8s0.4,0.8,0.8,0.8h10v0.8h-9.2c-0.5,0-0.8,0.4-0.8,0.8c0,0.5,0.4,0.8,0.8,0.8h10c0.7,0.6,1.7,1,2.7,1
		c1.1,0,2.2-0.4,3-1.2c0.3-0.3,0.3-0.9,0-1.2c-0.3-0.3-0.9-0.3-1.2,0c-0.9,0.9-2.6,0.9-3.5,0V29.1z"/>
	<path id="XMLID_8_" class="st0" d="M35.4,39.2c-5.4,0-11.7,6.8-11.7,12.5c0,0.5,0.4,0.8,0.8,0.8c0.5,0,0.8-0.4,0.8-0.8
		c0-4.8,5.6-10.9,10-10.9c0.5,0,0.8-0.4,0.8-0.8S35.9,39.2,35.4,39.2z"/>
	<path class="st0" d="M58.8,44.2c-0.9,0-1.9,0.1-2.9,0.2c-1.1-2.1-2.6-3.8-4.5-5.3l-6-4.1c-1-0.8-2.6-1.7-4.4-1.7h-6.5
		c-1.6,0-3.2,0.5-4.4,1.5l-5.9,4.3C18,44,16.1,52.5,19.5,59.3c1.3,2.5,3.4,5.5,6.3,5.7c0.2,0,0.5,0,0.7,0h16.3
		c1.2,1.5,3.1,2.5,5.2,2.5c2.4,0,4.5-1.3,5.7-3.2c1.5,0.5,3.3,0.7,5.1,0.7c4,0,8.4-1.3,8.4-3.3v-4.6h-0.1c0-0.1,0.1-0.3,0.1-0.4v-5
		v-4.6C67.2,44.8,61.9,44.2,58.8,44.2z M65.4,47.1C65.4,47.1,65.4,47.1,65.4,47.1c-0.1,0.1-0.1,0.1-0.2,0.1c-0.1,0-0.1,0.1-0.2,0.1
		c-0.1,0-0.1,0.1-0.2,0.1c-0.1,0-0.2,0.1-0.3,0.1c-0.1,0-0.2,0.1-0.3,0.1c-0.1,0-0.3,0.1-0.4,0.1c-0.1,0-0.2,0.1-0.3,0.1
		c-0.2,0-0.3,0.1-0.5,0.1c-0.1,0-0.3,0.1-0.4,0.1c-0.2,0-0.4,0.1-0.6,0.1c-0.2,0-0.3,0-0.5,0.1c-0.3,0-0.6,0.1-0.8,0.1
		c-0.1,0-0.3,0-0.4,0c-0.5,0-0.9,0-1.5,0c-0.5,0-1,0-1.5,0c-0.2,0-0.3,0-0.4,0c-0.3,0-0.6,0-0.8-0.1c-0.2,0-0.3,0-0.5-0.1
		c-0.2,0-0.4-0.1-0.6-0.1c-0.1,0-0.3-0.1-0.4-0.1c-0.2,0-0.4-0.1-0.5-0.1c-0.1,0-0.2-0.1-0.3-0.1c-0.1,0-0.3-0.1-0.4-0.1
		c-0.1,0-0.2-0.1-0.3-0.1c-0.1,0-0.2-0.1-0.3-0.1c-0.1,0-0.1-0.1-0.2-0.1c-0.1,0-0.1-0.1-0.2-0.1c0,0-0.1-0.1-0.1-0.1
		c0,0,0,0-0.1-0.1c0,0,0,0,0,0c0,0,0.1-0.1,0.1-0.1c0.1,0,0.2-0.1,0.3-0.1c0.1,0,0.1-0.1,0.2-0.1c0.1,0,0.1-0.1,0.2-0.1
		c0.1,0,0.2-0.1,0.3-0.1c0.1,0,0.1-0.1,0.2-0.1c0.2-0.1,0.4-0.1,0.6-0.2c0.1,0,0.2,0,0.3-0.1c0.1,0,0.3-0.1,0.4-0.1
		c0.2,0,0.3-0.1,0.5-0.1c0.9-0.1,2.1-0.2,3.4-0.2C62.8,45.8,65,46.7,65.4,47.1z M52.7,54c0.1,0,0.2,0.1,0.2,0.1
		c0.1,0.1,0.3,0.1,0.4,0.2c0.1,0,0.2,0.1,0.2,0.1c0.2,0.1,0.4,0.1,0.5,0.2c0.1,0,0.1,0,0.2,0.1c0.3,0.1,0.5,0.1,0.8,0.2
		c0.1,0,0.1,0,0.2,0c0.2,0,0.4,0.1,0.6,0.1c0.1,0,0.2,0,0.3,0c0.2,0,0.4,0,0.6,0.1c0.1,0,0.2,0,0.3,0c0.2,0,0.4,0,0.6,0
		c0.1,0,0.2,0,0.3,0c0.3,0,0.6,0,0.9,0c0.3,0,0.6,0,0.9,0c0.1,0,0.2,0,0.3,0c0.2,0,0.4,0,0.6,0c0.1,0,0.2,0,0.3,0
		c0.2,0,0.4,0,0.6-0.1c0.1,0,0.2,0,0.3,0c0.2,0,0.4-0.1,0.6-0.1c0.1,0,0.1,0,0.2,0c0.3-0.1,0.5-0.1,0.8-0.2c0.1,0,0.1,0,0.2-0.1
		c0.2,0,0.4-0.1,0.5-0.2c0.1,0,0.2-0.1,0.2-0.1c0.2-0.1,0.3-0.1,0.4-0.2c0.1,0,0.2-0.1,0.2-0.1c0.2-0.1,0.3-0.1,0.4-0.2
		c0,0,0.1,0,0.1-0.1l0,2.9c-0.2,0.5-2.4,1.5-5.8,1.7c-0.3,0-0.6,0-0.9,0c-1.8,0-3.7-0.3-5-0.8c0,0,0,0,0,0c-0.1-0.2-0.2-0.3-0.3-0.5
		c0,0,0,0-0.1-0.1c-0.1-0.1-0.2-0.3-0.3-0.4c0,0-0.1-0.1-0.1-0.1c-0.1-0.1-0.2-0.2-0.3-0.3c-0.1-0.1-0.1-0.1-0.2-0.2
		c-0.1-0.1-0.2-0.2-0.3-0.3c0,0,0,0,0,0c0-0.3,0-1.1,0-2c0,0,0.1,0,0.1,0.1C52.4,53.8,52.5,53.9,52.7,54z M41.7,63.4H26.5
		c-0.2,0-0.4,0-0.6,0c-1.6-0.1-3.4-1.8-4.9-4.8c-3.1-6.1-1.4-13.8,4.2-18.1l5.9-4.3c1-0.8,2.2-1.2,3.4-1.2H41c1.4,0,2.6,0.7,3.4,1.4
		l6,4.1c1.5,1.1,2.7,2.5,3.7,4.2c-1.1,0.2-2.1,0.6-2.8,1c0,0,0,0-0.1,0c-0.1,0.1-0.2,0.2-0.3,0.2c0,0-0.1,0.1-0.1,0.1
		c-0.1,0.1-0.1,0.1-0.2,0.2c0,0.1-0.1,0.1-0.1,0.2c0,0.1-0.1,0.1-0.1,0.2c0,0.1-0.1,0.3-0.1,0.4v4.6v3c-0.3-0.1-0.6-0.2-0.9-0.3
		c0,0-0.1,0-0.1,0c-0.3-0.1-0.6-0.1-0.9-0.1c0,0-0.1,0-0.1,0c-0.2,0-0.3,0-0.5,0c-0.1,0-0.2,0-0.3,0c-0.1,0-0.1,0-0.2,0
		c-0.3,0-0.6,0.1-0.9,0.1c0,0,0,0,0,0c0,0,0,0-0.1,0c-0.3,0.1-0.5,0.1-0.8,0.2c-0.1,0-0.2,0.1-0.3,0.1c-0.2,0.1-0.5,0.2-0.7,0.3
		c-0.1,0-0.2,0.1-0.3,0.2c-0.2,0.1-0.3,0.2-0.5,0.3c-0.1,0.1-0.2,0.1-0.3,0.2c-0.2,0.2-0.4,0.3-0.6,0.5c-0.1,0.1-0.1,0.2-0.2,0.2
		c-0.1,0.1-0.2,0.3-0.4,0.4c-0.1,0.1-0.1,0.2-0.2,0.2c-0.1,0.2-0.3,0.4-0.4,0.7c0,0.1-0.1,0.2-0.1,0.3c-0.1,0.2-0.2,0.4-0.3,0.6
		c0,0.1,0,0.1-0.1,0.2c-0.1,0.3-0.1,0.6-0.2,0.8c0,0,0,0.1,0,0.1c0,0,0,0.1,0,0.1c0,0.2,0,0.4-0.1,0.6c0,0.1,0,0.1,0,0.2
		c0,0,0,0.1,0,0.1c0,0.1,0,0.3,0,0.4C41.3,62,41.4,62.7,41.7,63.4z M48,65.9c-2.7,0-5-2.2-5-5c0-0.1,0-0.1,0-0.2c0-0.1,0-0.2,0-0.3
		c0-0.1,0-0.2,0-0.2c0-0.1,0-0.2,0-0.2c0-0.2,0.1-0.4,0.2-0.6c0,0,0,0,0-0.1c0.1-0.2,0.2-0.4,0.3-0.6c0,0,0,0,0-0.1
		c0.5-0.9,1.2-1.6,2-2.1c0,0,0,0,0,0c0.2-0.1,0.4-0.2,0.6-0.3c0.1,0,0.1,0,0.2-0.1c0.2-0.1,0.4-0.1,0.6-0.2c0,0,0.1,0,0.1,0
		c0.2,0,0.5-0.1,0.7-0.1c0,0,0.1,0,0.1,0c0.2,0,0.5,0,0.7,0c0,0,0,0,0,0c0.3,0,0.5,0.1,0.8,0.2c0,0,0,0,0,0c0.3,0.1,0.5,0.2,0.8,0.3
		c0.2,0.1,0.4,0.2,0.7,0.4l0,0c0,0,0.1,0,0.1,0.1c0.1,0.1,0.3,0.2,0.4,0.3c0,0,0.1,0.1,0.1,0.1c0.1,0.1,0.2,0.2,0.4,0.4c0,0,0,0,0,0
		c0.3,0.3,0.5,0.7,0.7,1c0,0.1,0.1,0.2,0.1,0.3c0.1,0.1,0.1,0.3,0.2,0.4c0,0,0,0,0,0c0,0.2,0.1,0.3,0.1,0.5c0,0,0,0,0,0
		c0,0.2,0.1,0.3,0.1,0.5c0,0,0,0,0,0c0,0.2,0,0.3,0,0.5c0,0.2,0,0.4,0,0.5c0,0,0,0.1,0,0.1c0,0.2,0,0.3-0.1,0.4c0,0,0,0,0,0
		c0,0.2-0.1,0.3-0.1,0.5c0,0,0,0,0,0c-0.1,0.2-0.1,0.3-0.2,0.5C51.7,64.7,50,65.9,48,65.9z M58.8,63.4c-1.6,0-3.2-0.2-4.5-0.6
		c0,0,0,0,0,0c0.1-0.3,0.1-0.5,0.2-0.8c0-0.1,0-0.1,0-0.2c0-0.3,0.1-0.6,0.1-0.9c0-0.2,0-0.4,0-0.6c0-0.1,0-0.2,0-0.2
		c0-0.1,0-0.2,0-0.3c1.3,0.2,2.7,0.4,4.3,0.4c2,0,4.9-0.3,6.7-1.1l0,2.7C65.3,62.2,62.8,63.4,58.8,63.4z M58.8,53.4
		c-3.9,0-6.5-1.2-6.7-1.7c0-1,0-1.9,0-2.7c0,0,0,0,0.1,0c0.2,0.1,0.4,0.2,0.6,0.2c0,0,0,0,0,0c0.2,0.1,0.5,0.1,0.7,0.2
		c0.1,0,0.2,0,0.2,0.1c0.2,0,0.4,0.1,0.5,0.1c0.1,0,0.2,0,0.3,0.1c0.2,0,0.4,0.1,0.6,0.1c0.1,0,0.1,0,0.2,0c0.3,0,0.5,0.1,0.8,0.1
		c0.1,0,0.1,0,0.2,0c0.2,0,0.4,0,0.6,0c0.1,0,0.2,0,0.3,0c0.2,0,0.4,0,0.5,0c0.1,0,0.2,0,0.2,0c0.2,0,0.5,0,0.7,0c0.2,0,0.5,0,0.7,0
		c0.1,0,0.2,0,0.2,0c0.2,0,0.4,0,0.5,0c0.1,0,0.2,0,0.3,0c0.2,0,0.4,0,0.6,0c0.1,0,0.1,0,0.2,0c0.3,0,0.5-0.1,0.8-0.1
		c0.1,0,0.1,0,0.2,0c0.2,0,0.4-0.1,0.6-0.1c0.1,0,0.2,0,0.3-0.1c0.2,0,0.4-0.1,0.5-0.1c0.1,0,0.2,0,0.2-0.1c0.2-0.1,0.5-0.1,0.7-0.2
		c0,0,0,0,0,0c0.2-0.1,0.4-0.2,0.6-0.2c0,0,0.1,0,0.1,0l0,2.7C65.3,52.1,62.8,53.4,58.8,53.4z"/>
</g>
</svg>
