<?xml version="1.0" encoding="utf-8"?>
<!-- Generator: Adobe Illustrator 19.0.0, SVG Export Plug-In . SVG Version: 6.00 Build 0)  -->
<svg version="1.0" id="Layer_1" xmlns="http://www.w3.org/2000/svg" xmlns:xlink="http://www.w3.org/1999/xlink" x="0px" y="0px"
	 viewBox="0 0 85 85" style="enable-background:new 0 0 85 85;" xml:space="preserve">
<style type="text/css">
	.st0{fill:#EE2438;}
</style>
<g id="XMLID_40_">
	<path id="XMLID_2_" class="st0" d="M42.5,83.5c-22.6,0-41-18.4-41-41s18.4-41,41-41s41,18.4,41,41S65.1,83.5,42.5,83.5z M42.5,3.5
		c-21.5,0-39,17.5-39,39s17.5,39,39,39s39-17.5,39-39S64,3.5,42.5,3.5z"/>
</g>
<g id="XMLID_5_">
	<path id="XMLID_10_" class="st0" d="M70.4,53.4c0.1-0.3,0.2-0.6,0.4-1c0.1-0.2,0.1-0.4,0.2-0.6c0.1-0.4,0.3-0.9,0.4-1.3
		c0-0.1,0-0.1,0.1-0.2c0,0,0,0,0,0c0.7-2.5,1-5.1,1-7.8c0-16.5-13.5-30-30-30s-30,13.5-30,30c0,2.8,0.4,5.6,1.1,8.2c0,0,0,0,0,0
		c0,0,0,0.1,0,0.1c0.1,0.5,0.3,1,0.5,1.4c0,0.1,0.1,0.2,0.1,0.3c0.2,0.5,0.4,1,0.6,1.6c0.1,0.3,0.2,0.5,0.4,0.8
		c0.1,0.2,0.2,0.4,0.3,0.6c0.2,0.4,0.4,0.7,0.6,1.1c0,0.1,0.1,0.1,0.1,0.2c3,5.5,7.6,9.9,13.3,12.7c0,0,0,0,0,0
		c0.4,0.2,0.7,0.3,1.1,0.5c0.2,0.1,0.3,0.1,0.5,0.2c0.3,0.1,0.6,0.2,0.9,0.4c0.3,0.1,0.6,0.2,0.9,0.3c0.2,0.1,0.4,0.1,0.6,0.2
		c0,0,0,0,0,0c2.8,0.9,5.8,1.4,9,1.4c3.3,0,6.4-0.5,9.3-1.5c0,0,0,0,0,0c0.1,0,0.2-0.1,0.2-0.1c0.4-0.1,0.8-0.3,1.2-0.5
		c0.2-0.1,0.4-0.1,0.5-0.2c0.3-0.1,0.6-0.3,1-0.4C61.6,66.8,67,61.3,70,54.5c0.1-0.1,0.1-0.3,0.2-0.4C70.3,53.9,70.4,53.6,70.4,53.4
		z M17.2,54.4c-0.1-0.3-0.2-0.5-0.4-0.8c-0.1-0.3-0.2-0.6-0.4-0.9c-0.1-0.2-0.1-0.3-0.2-0.5c-0.2-0.5-0.4-1-0.5-1.5
		c0.2-0.1,0.3-0.2,0.5-0.4l3.2,5.5c-0.3,0.3-0.7,0.6-0.9,0.9c-0.4-0.7-0.8-1.3-1.1-2C17.3,54.7,17.2,54.5,17.2,54.4z M31.3,50.9
		l-4.2,4.7c-1.7-1.1-3.9-1.4-5.9-0.6L18,49.5C22.4,47.4,27.6,48,31.3,50.9z M34.6,54.6c1.2,2,1.7,4.2,1.7,6.4l0,0c0,0,0,0,0,0
		c0,1.4-0.3,2.9-0.7,4.3l-5.8-2.6c0.4-1.6,0.3-3.4-0.6-5c-0.2-0.3-0.4-0.6-0.6-0.9l4.2-4.7C33.4,52.9,34.1,53.7,34.6,54.6z
		 M33.1,68.9c-0.2-0.1-0.4-0.1-0.5-0.2c-1.8-0.7-3.5-1.5-5-2.5c0.6-0.5,1.1-1,1.5-1.6l5.8,2.6c-0.4,0.7-0.8,1.3-1.3,1.9
		C33.3,69,33.2,68.9,33.1,68.9z M21.2,57.1c2.2-1.2,4.9-0.5,6.2,1.7c1.2,2.2,0.5,4.9-1.7,6.2c0,0,0,0,0,0c-0.1-0.1-0.2-0.1-0.3-0.2
		c-0.4-0.3-0.8-0.6-1.1-0.9c-0.2-0.2-0.4-0.3-0.6-0.5c-0.4-0.3-0.8-0.7-1.1-1.1c-0.2-0.2-0.4-0.4-0.6-0.7c-0.2-0.2-0.4-0.4-0.6-0.7
		c-0.3-0.4-0.6-0.7-0.9-1.1c-0.2-0.2-0.4-0.5-0.6-0.7c-0.1-0.1-0.2-0.3-0.3-0.4C20,58,20.6,57.5,21.2,57.1z M35.5,69.6
		c0.6-0.8,1.1-1.7,1.5-2.6c0,0,0,0,0,0c0,0,0,0,0,0c0.7-1.6,1.1-3.3,1.2-5h1.2c0.6,0,1-0.4,1-1s-0.4-1-1-1h-1.2
		c-0.1-1.9-0.6-3.8-1.5-5.5l1.1-0.6c0.5-0.3,0.6-0.9,0.4-1.4c-0.3-0.5-0.9-0.6-1.4-0.4l-1.1,0.6c-0.7-1-1.5-1.9-2.4-2.7c0,0,0,0,0,0
		c0,0,0,0,0,0c-0.5-0.5-1.1-0.9-1.6-1.3l0.6-1.1c0.3-0.5,0.1-1.1-0.4-1.4c-0.5-0.3-1.1-0.1-1.4,0.4L30,47.7
		c-1.7-0.8-3.6-1.3-5.5-1.5V45c0-0.6-0.4-1-1-1s-1,0.4-1,1v1.3c-2.2,0.1-4.4,0.8-6.4,1.9c-0.3,0.2-0.6,0.4-0.9,0.6
		c-0.5-2-0.7-4.1-0.7-6.3c0-15.4,12.6-28,28-28s28,12.6,28,28c0,2-0.2,4-0.6,5.8c-2.2-1.5-4.8-2.4-7.4-2.6v-1.3c0-0.6-0.4-1-1-1
		s-1,0.4-1,1v1.3c-1.9,0.1-3.8,0.6-5.5,1.5l-0.6-1.1c-0.3-0.5-0.9-0.6-1.4-0.4c-0.5,0.3-0.6,0.9-0.4,1.4l0.6,1.1c-1.6,1.1-3,2.5-4,4
		l-1.1-0.6c-0.5-0.3-1.1-0.1-1.4,0.4c-0.3,0.5-0.1,1.1,0.4,1.4l1.1,0.6c-0.8,1.7-1.3,3.6-1.5,5.5h-1.2c-0.6,0-1,0.4-1,1s0.4,1,1,1
		h1.3c0,0.7,0.1,1.4,0.3,2c0,0,0,0,0,0c0,0,0,0,0,0c0.3,1.5,0.9,2.9,1.6,4.3c0.3,0.6,0.7,1.1,1.1,1.6c-2.3,0.6-4.8,1-7.3,1
		C40.1,70.5,37.7,70.2,35.5,69.6z M69.3,50.6c-0.1,0.4-0.2,0.7-0.4,1.1c0,0.1-0.1,0.3-0.1,0.4c-0.1,0.3-0.3,0.7-0.4,1
		c-0.2,0.5-0.4,1-0.6,1.5c0,0,0,0.1,0,0.1c-0.3,0.7-0.7,1.3-1,1.9c-1.8-2.3-4.8-3.2-7.5-2.1L56,49c1.7-0.8,3.6-1.3,5.5-1.3
		c2.8,0,5.6,0.9,7.9,2.7C69.3,50.5,69.3,50.5,69.3,50.6z M55.7,67.2c-0.3,0.2-0.7,0.3-1,0.5c-0.3,0.1-0.5,0.2-0.8,0.4
		c-0.2,0.1-0.3,0.2-0.5,0.2c-0.5,0.2-1,0.4-1.5,0.6c0,0,0,0-0.1,0c-0.6-0.6-1-1.3-1.4-2c-0.5-0.9-0.9-1.8-1.2-2.8l6.2-1.3
		c0.1,0.3,0.3,0.6,0.4,0.9c0.5,0.9,1.2,1.6,2,2.1c-0.6,0.4-1.3,0.8-2,1.2C55.8,67.1,55.8,67.2,55.7,67.2z M54.3,50l3.2,5.5
		c-1.7,1.3-2.5,3.4-2.4,5.4l-6.2,1.3C48.2,57.5,50.2,52.7,54.3,50z M61.5,56c1.6,0,3.1,0.8,3.9,2.3c0,0.1,0.1,0.1,0.1,0.2
		c-0.1,0.2-0.2,0.3-0.3,0.5c-0.2,0.3-0.4,0.5-0.6,0.8c-0.3,0.4-0.6,0.7-0.9,1.1c-0.2,0.2-0.4,0.4-0.6,0.6c-0.2,0.3-0.5,0.5-0.7,0.8
		c-0.2,0.2-0.3,0.3-0.5,0.4c-0.4,0.4-0.9,0.8-1.3,1.2c-0.2,0.1-0.3,0.3-0.5,0.4c-0.2,0.1-0.3,0.3-0.5,0.4c-0.9-0.4-1.6-1-2.1-1.9
		c-1.2-2.2-0.5-4.9,1.7-6.2C60,56.2,60.7,56,61.5,56z"/>
	<path id="XMLID_6_" class="st0" d="M51.2,43.8c0.6-2.3,0.3-4.7-0.9-6.8c-0.2-0.4-0.5-0.8-0.8-1.1l7.6-7.6c0.9,1,1.7,2.1,2.4,3.4
		c1.7,3,2.6,6.4,2.6,9.9c0,0.6,0.4,1,1,1c0,0,0,0,0,0c0.5,0,1-0.4,1-1c0-1.6-0.2-3.2-0.5-4.7l2.3-0.6c0.5-0.1,0.8-0.7,0.7-1.2
		c-0.1-0.5-0.7-0.9-1.2-0.7l-2.3,0.6c-0.4-1.2-0.8-2.3-1.4-3.4l2-1.2c0.5-0.3,0.6-0.9,0.4-1.4c-0.3-0.5-0.9-0.6-1.4-0.4l-2,1.2
		c-0.7-1-1.4-2-2.2-2.9l1.7-1.7c0.4-0.4,0.4-1,0-1.4s-1-0.4-1.4,0l-1.7,1.7c-0.9-0.8-1.9-1.6-2.9-2.2l1.2-2c0.3-0.5,0.1-1.1-0.4-1.4
		c-0.5-0.3-1.1-0.1-1.4,0.4l-1.2,2c-1.1-0.6-2.2-1-3.4-1.4l0.6-2.3c0.1-0.5-0.2-1.1-0.7-1.2c-0.5-0.1-1.1,0.2-1.2,0.7l-0.6,2.3
		c-1.2-0.3-2.4-0.4-3.6-0.5v-2.4c0-0.6-0.4-1-1-1c-0.6,0-1,0.4-1,1v2.4c-1.2,0.1-2.4,0.2-3.6,0.5l-0.6-2.3c-0.1-0.5-0.7-0.9-1.2-0.7
		c-0.5,0.1-0.9,0.7-0.7,1.2l0.6,2.3c-1.2,0.4-2.3,0.8-3.4,1.4l-1.2-2c-0.3-0.5-0.9-0.6-1.4-0.4c-0.5,0.3-0.6,0.9-0.4,1.4l1.2,2
		c-1,0.7-2,1.4-2.9,2.2l-1.7-1.7c-0.4-0.4-1-0.4-1.4,0c-0.4,0.4-0.4,1,0,1.4l1.7,1.7c-0.8,0.9-1.6,1.9-2.2,2.9l-2-1.2
		c-0.5-0.3-1.1-0.1-1.4,0.4c-0.3,0.5-0.1,1.1,0.4,1.4l2,1.2c-0.6,1.1-1,2.2-1.4,3.4l-2.3-0.6c-0.5-0.1-1.1,0.2-1.2,0.7
		s0.2,1.1,0.7,1.2l2.3,0.6c-0.3,1.5-0.5,3.1-0.5,4.7c0,0.6,0.4,1,1,1c0,0,0,0,0,0c0.6,0,1-0.5,1-1c0-5,1.9-9.7,5.1-13.3l7.6,7.6
		c-0.8,1-1.3,2.1-1.7,3.3c-0.6,2.3-0.3,4.7,0.9,6.8c1.2,2.1,3.1,3.6,5.5,4.2c0.8,0.2,1.6,0.3,2.3,0.3c1.6,0,3.1-0.4,4.5-1.2
		C49.1,48.1,50.6,46.2,51.2,43.8z M38,33.7c-0.4,0.2-0.8,0.5-1.1,0.8l-7.6-7.6c1-0.9,2.1-1.7,3.3-2.4c7.6-4.4,16.9-3.1,23,2.4
		l-7.6,7.6c-1-0.8-2.1-1.3-3.3-1.7C42.5,32.2,40.1,32.5,38,33.7z M40.7,48.3c-1.8-0.5-3.3-1.6-4.3-3.3c-0.9-1.6-1.2-3.5-0.7-5.3
		s1.6-3.3,3.3-4.2c1.1-0.6,2.3-0.9,3.5-0.9c0.6,0,1.2,0.1,1.8,0.2c1.8,0.5,3.3,1.6,4.3,3.3s1.2,3.5,0.7,5.3s-1.6,3.3-3.3,4.2
		C44.4,48.5,42.5,48.7,40.7,48.3z"/>
</g>
</svg>
