<?xml version="1.0" encoding="utf-8"?>
<!-- Generator: Adobe Illustrator 19.0.0, SVG Export Plug-In . SVG Version: 6.00 Build 0)  -->
<svg version="1.0" id="Layer_1" xmlns="http://www.w3.org/2000/svg" xmlns:xlink="http://www.w3.org/1999/xlink" x="0px" y="0px"
	 viewBox="0 0 30.6 32.5" enable-background="new 0 0 30.6 32.5" xml:space="preserve">
<path id="XMLID_44_" fill="#FFFFFF" d="M41.5-44.5c0-1.7,1.2-3.7,2.6-4.5l9.6-5.6c1.4-0.8,3.8-0.8,5.2,0l9.6,5.6
	c1.4,0.8,2.6,2.8,2.6,4.5v11.1c0,1.7-1.2,3.7-2.6,4.5l-9.6,5.6c-1.4,0.8-3.8,0.8-5.2,0l-9.6-5.6c-1.4-0.8-2.6-2.8-2.6-4.5V-44.5z"/>
<g id="XMLID_40_">
	<circle id="XMLID_43_" fill="#2D2D2D" cx="50.1" cy="-45.1" r="2"/>
	<rect id="XMLID_42_" x="48.4" y="-41.7" fill="#2D2D2D" width="3.4" height="10.9"/>
	<path id="XMLID_41_" fill="#2D2D2D" d="M60.4-41.9c-1.6,0-2.8,0.9-3.2,1.8h0v-1.5h-3.3l0,0v10.9h3.4v-5.4c0-1.4,0.3-2.8,2-2.8
		c1.7,0,1.8,1.6,1.8,2.9v5.3h3.4v-6C64.5-39.7,63.9-41.9,60.4-41.9z"/>
</g>
<path id="XMLID_51_" fill="#FFFFFF" d="M27.2,6.2l-9.7-5.6c-1.4-0.8-3.8-0.8-5.2,0L2.6,6.2C1.2,7,0,9.1,0,10.7v11.1
	c0,1.7,1.2,3.7,2.6,4.5l9.6,5.6c1.4,0.8,3.8,0.8,5.2,0l9.8-5.6c1.4-0.8,2.8-2.8,2.8-4.5V10.7C30,9.1,28.7,7,27.2,6.2z M10,24H7V14h3
	V24z M8.6,12c-1.1,0-2-0.9-2-2c0-1.1,0.9-2,2-2c1.1,0,2,0.9,2,2C10.6,11.1,9.7,12,8.6,12z M23,24h-3v-4.9c0-1.3-0.1-2.9-1.9-2.9
	c-1.8,0-2.1,1.4-2.1,2.8v5h-4V14h4v1h-0.3c0.5-1,1.6-1.8,3.2-1.8c3.4,0,4.1,2.3,4.1,5.2V24z"/>
<path id="XMLID_39_" fill="#FFFFFF" d="M81.5-44.5c0-1.7,1.2-3.7,2.6-4.5l9.6-5.6c1.4-0.8,3.8-0.8,5.2,0l9.6,5.6
	c1.4,0.8,2.6,2.8,2.6,4.5v11.1c0,1.7-1.2,3.7-2.6,4.5l-9.6,5.6c-1.4,0.8-3.8,0.8-5.2,0l-9.6-5.6c-1.4-0.8-2.6-2.8-2.6-4.5V-44.5z"/>
<g id="XMLID_28_">
	<g id="XMLID_29_">
		<path id="XMLID_38_" fill="#2D2D2D" d="M103.8-31.8c0.4,0,0.8-0.1,1.1-0.4l-5.1-5.1c-0.1,0.1-0.2,0.2-0.4,0.3
			c-0.4,0.3-0.7,0.5-0.9,0.7c-0.2,0.2-0.6,0.3-1,0.5c-0.4,0.2-0.8,0.2-1.1,0.2h0h0c-0.3,0-0.7-0.1-1.1-0.2c-0.4-0.2-0.7-0.3-1-0.5
			c-0.2-0.2-0.6-0.4-0.9-0.7c-0.1-0.1-0.2-0.2-0.4-0.3l-5.1,5.1c0.3,0.3,0.7,0.4,1.1,0.4H103.8z"/>
		<path id="XMLID_37_" fill="#2D2D2D" d="M88.3-40.6c-0.4-0.3-0.7-0.6-1-0.9v7.8l4.5-4.5C90.9-38.8,89.7-39.6,88.3-40.6z"/>
		<path id="XMLID_33_" fill="#2D2D2D" d="M104.4-40.6c-1.4,0.9-2.6,1.7-3.5,2.4l4.5,4.5v-7.8C105.1-41.1,104.8-40.8,104.4-40.6z"/>
		<path id="XMLID_32_" fill="#2D2D2D" d="M103.8-46.1H88.9c-0.5,0-0.9,0.2-1.2,0.5c-0.3,0.4-0.4,0.8-0.4,1.3c0,0.4,0.2,0.9,0.6,1.4
			c0.4,0.5,0.8,0.9,1.2,1.2c0.2,0.2,0.9,0.6,2.1,1.4c0.6,0.4,1.2,0.8,1.6,1.1c0.4,0.3,0.7,0.5,1,0.7c0,0,0.1,0.1,0.2,0.1
			c0.1,0.1,0.2,0.1,0.3,0.2c0.2,0.2,0.4,0.3,0.5,0.4c0.1,0.1,0.3,0.2,0.5,0.3c0.2,0.1,0.4,0.2,0.6,0.3C96-37,96.2-37,96.3-37h0h0
			c0.2,0,0.3,0,0.5-0.1c0.2-0.1,0.4-0.2,0.6-0.3c0.2-0.1,0.4-0.2,0.5-0.3c0.1-0.1,0.3-0.2,0.5-0.4c0.1-0.1,0.2-0.1,0.3-0.2
			c0.1,0,0.1-0.1,0.2-0.1c0.2-0.2,0.6-0.4,1-0.7c0.8-0.6,2.1-1.4,3.7-2.6c0.5-0.3,0.9-0.8,1.2-1.2c0.3-0.5,0.5-1,0.5-1.5
			c0-0.4-0.2-0.8-0.5-1.1C104.6-45.9,104.2-46.1,103.8-46.1z"/>
	</g>
</g>
</svg>
