<?xml version="1.0" encoding="utf-8"?>
<!-- Generator: Adobe Illustrator 19.0.0, SVG Export Plug-In . SVG Version: 6.00 Build 0)  -->
<svg version="1.0" id="Layer_1" xmlns="http://www.w3.org/2000/svg" xmlns:xlink="http://www.w3.org/1999/xlink" x="0px" y="0px"
	 viewBox="0 0 141 50" enable-background="new 0 0 141 50" xml:space="preserve">
<g id="XMLID_2_">
	<path id="XMLID_36_" fill="#FFFFFF" d="M0.4,15.6L18,5.4c0,0,0.3-0.2,0.7,0C19,5.7,36.2,15.6,36.2,15.6s0.4,0.2,0.4,0.6
		c0,0.4,0,20.3,0,20.3s0,0.5-0.3,0.6C36,37.3,18.7,47.3,18.7,47.3s-0.4,0.2-0.7,0C17.6,47.1,0.4,37.1,0.4,37.1S0,36.9,0,36.5
		c0-0.4,0-20.3,0-20.3S0,15.8,0.4,15.6z"/>
	<path id="XMLID_35_" opacity="0.3" fill="#D5D5D5" d="M0.4,15.6L18,5.4c0,0,0.3-0.2,0.7,0C19,5.7,36.2,15.6,36.2,15.6
		s0.4,0.2,0.4,0.6c0,0.4,0,20.3,0,20.3s0,0.5-0.3,0.6C36,37.3,18.7,47.3,18.7,47.3s-0.4,0.2-0.7,0C17.6,47.1,0.4,37.1,0.4,37.1
		S0,36.9,0,36.5c0-0.4,0-20.3,0-20.3S0,15.8,0.4,15.6z"/>
	<path id="XMLID_34_" fill="#EE3B48" d="M2,16.5l16-9.2c0,0,0.3-0.2,0.6,0c0.4,0.2,16,9.2,16,9.2s0.3,0.2,0.3,0.5
		c0,0.4,0,18.5,0,18.5s0,0.4-0.3,0.6c-0.3,0.2-16,9.3-16,9.3s-0.3,0.2-0.7,0c-0.3-0.2-16-9.2-16-9.2s-0.3-0.2-0.3-0.6
		c0-0.4,0-18.5,0-18.5S1.6,16.7,2,16.5z"/>
	<g id="XMLID_31_" opacity="0.3">
		<path id="XMLID_12_" fill="#D5D5D5" d="M30.5,32.1c-0.4,0-0.8,0.2-1.1,0.4L19.9,27c0-0.1,0-0.2,0-0.3c0-0.9-0.8-1.7-1.7-1.7
			c-0.4,0-0.8,0.2-1.1,0.4l-9.5-5.5c0-0.1,0-0.2,0-0.3c0-0.1,0-0.2,0-0.3l9.5-5.5c0.3,0.3,0.7,0.4,1.1,0.4c0.4,0,0.8-0.2,1.1-0.4
			l9.5,5.5c0,0.1,0,0.2,0,0.3c0,0.9,0.8,1.7,1.7,1.7c0.9,0,1.7-0.8,1.7-1.7c0-0.9-0.8-1.7-1.7-1.7c-0.4,0-0.8,0.2-1.1,0.4l-9.5-5.5
			c0-0.1,0-0.2,0-0.3c0-0.9-0.8-1.7-1.7-1.7c-0.9,0-1.7,0.8-1.7,1.7c0,0.1,0,0.2,0,0.3l-9.5,5.5C6.8,18,6.4,17.9,6,17.9
			c-0.9,0-1.7,0.8-1.7,1.7c0,0.9,0.8,1.7,1.7,1.7c0.4,0,0.8-0.2,1.1-0.4l9.5,5.5c0,0.1,0,0.2,0,0.3c0,0.9,0.8,1.7,1.7,1.7
			c0.4,0,0.8-0.2,1.1-0.4l9.6,5.5c0,0.1,0,0.2,0,0.3c0,0.1,0,0.2,0,0.3l-9.6,5.5c-0.3-0.3-0.7-0.4-1.1-0.4c-0.4,0-0.8,0.2-1.1,0.4
			L7.6,34c0-0.1,0-0.2,0-0.4c0-0.9-0.8-1.7-1.7-1.7c-0.9,0-1.7,0.8-1.7,1.7c0,0.9,0.8,1.7,1.7,1.7c0.4,0,0.8-0.1,1.1-0.4l9.6,5.5
			c0,0.1,0,0.2,0,0.3c0,0.9,0.8,1.7,1.7,1.7c0.9,0,1.7-0.8,1.7-1.7c0-0.1,0-0.2,0-0.3l9.5-5.5c0.3,0.3,0.7,0.4,1.1,0.4
			c0.9,0,1.7-0.8,1.7-1.7C32.2,32.8,31.5,32.1,30.5,32.1z"/>
	</g>
	<path id="XMLID_30_" fill="#FFFFFF" d="M30.6,31.7c-0.4,0-0.8,0.2-1.1,0.4l-9.5-5.5c0-0.1,0-0.2,0-0.3c0-0.9-0.8-1.7-1.7-1.7
		c-0.4,0-0.8,0.2-1.1,0.4l-9.5-5.5c0-0.1,0-0.2,0-0.3c0-0.1,0-0.2,0-0.3l9.5-5.5c0.3,0.3,0.7,0.4,1.1,0.4c0.4,0,0.8-0.2,1.1-0.4
		l9.5,5.5c0,0.1,0,0.2,0,0.3c0,0.9,0.8,1.7,1.7,1.7c0.9,0,1.7-0.8,1.7-1.7c0-0.9-0.8-1.7-1.7-1.7c-0.4,0-0.8,0.2-1.1,0.4L20,12.5
		c0-0.1,0-0.2,0-0.3c0-0.9-0.8-1.7-1.7-1.7c-0.9,0-1.7,0.8-1.7,1.7c0,0.1,0,0.2,0,0.3L7.2,18c-0.3-0.3-0.7-0.4-1.1-0.4
		c-0.9,0-1.7,0.8-1.7,1.7c0,0.9,0.8,1.7,1.7,1.7c0.4,0,0.8-0.2,1.1-0.4l9.5,5.5c0,0.1,0,0.2,0,0.3c0,0.9,0.8,1.7,1.7,1.7
		c0.4,0,0.8-0.2,1.1-0.4l9.6,5.5c0,0.1,0,0.2,0,0.3c0,0.1,0,0.2,0,0.3l-9.6,5.5c-0.3-0.3-0.7-0.4-1.1-0.4c-0.4,0-0.8,0.2-1.1,0.4
		l-9.5-5.5c0-0.1,0-0.2,0-0.4c0-0.9-0.8-1.7-1.7-1.7c-0.9,0-1.7,0.8-1.7,1.7C4.3,34.3,5.1,35,6,35c0.4,0,0.8-0.1,1.1-0.4l9.6,5.5
		c0,0.1,0,0.2,0,0.3c0,0.9,0.8,1.7,1.7,1.7c0.9,0,1.7-0.8,1.7-1.7c0-0.1,0-0.2,0-0.3l9.5-5.5c0.3,0.3,0.7,0.4,1.1,0.4
		c0.9,0,1.7-0.8,1.7-1.7C32.3,32.5,31.5,31.7,30.6,31.7z"/>
	<g id="XMLID_27_" opacity="0.3">
		<path id="XMLID_10_" fill="#D5D5D5" d="M30.6,31.7c-0.4,0-0.8,0.2-1.1,0.4l-9.5-5.5c0-0.1,0-0.2,0-0.3c0-0.9-0.8-1.7-1.7-1.7
			c-0.4,0-0.8,0.2-1.1,0.4l-9.5-5.5c0-0.1,0-0.2,0-0.3c0-0.1,0-0.2,0-0.3l9.5-5.5c0.3,0.3,0.7,0.4,1.1,0.4c0.4,0,0.8-0.2,1.1-0.4
			l9.5,5.5c0,0.1,0,0.2,0,0.3c0,0.9,0.8,1.7,1.7,1.7c0.9,0,1.7-0.8,1.7-1.7c0-0.9-0.8-1.7-1.7-1.7c-0.4,0-0.8,0.2-1.1,0.4L20,12.5
			c0-0.1,0-0.2,0-0.3c0-0.9-0.8-1.7-1.7-1.7c-0.9,0-1.7,0.8-1.7,1.7c0,0.1,0,0.2,0,0.3L7.2,18c-0.3-0.3-0.7-0.4-1.1-0.4
			c-0.9,0-1.7,0.8-1.7,1.7c0,0.9,0.8,1.7,1.7,1.7c0.4,0,0.8-0.2,1.1-0.4l9.5,5.5c0,0.1,0,0.2,0,0.3c0,0.9,0.8,1.7,1.7,1.7
			c0.4,0,0.8-0.2,1.1-0.4l9.6,5.5c0,0.1,0,0.2,0,0.3c0,0.1,0,0.2,0,0.3l-9.6,5.5c-0.3-0.3-0.7-0.4-1.1-0.4c-0.4,0-0.8,0.2-1.1,0.4
			l-9.5-5.5c0-0.1,0-0.2,0-0.4c0-0.9-0.8-1.7-1.7-1.7c-0.9,0-1.7,0.8-1.7,1.7C4.3,34.3,5.1,35,6,35c0.4,0,0.8-0.1,1.1-0.4l9.6,5.5
			c0,0.1,0,0.2,0,0.3c0,0.9,0.8,1.7,1.7,1.7c0.9,0,1.7-0.8,1.7-1.7c0-0.1,0-0.2,0-0.3l9.5-5.5c0.3,0.3,0.7,0.4,1.1,0.4
			c0.9,0,1.7-0.8,1.7-1.7C32.3,32.5,31.5,31.7,30.6,31.7z"/>
	</g>
	<g id="XMLID_16_">
		<path id="XMLID_25_" fill="#FFFFFF" d="M57.8,16.1v2.1l-5.7-0.1c-2.8,0-4.3,0.6-4.3,1.8v2.1c0.1,1,1.1,1.7,3,2.2l2.7,0.8
			c3.3,0.8,4.9,2.4,4.9,4.7v1.7c0,3-2,4.5-6.2,4.5l-6.6-0.3v-2.1l6.4,0.1c2.5,0,3.8-0.7,3.9-2.1v-1.7c0-1-1-1.8-3.1-2.3l-3.1-1
			c-2.8-0.8-4.3-2.3-4.4-4.4V20c0-2.8,2.2-4.1,6.7-4.1L57.8,16.1z"/>
		<path id="XMLID_23_" fill="#FFFFFF" d="M64.4,15.8v20.1h-2.4V15.8H64.4z"/>
		<path id="XMLID_21_" fill="#FFFFFF" d="M82.4,15.8v2.4h-6v17.8H74V18.2h-6.5v-2.4H82.4z"/>
		<path id="XMLID_19_" fill="#FFFFFF" d="M98.2,18.2h-9.8c-0.8,0-1.2,0.4-1.2,1.2v5.4h8.5V27h-8.5v5.4c0,0.8,0.4,1.2,1.2,1.2h9.7
			v2.1l-9.7,0.2c-2.4,0-3.6-1.2-3.6-3.6V19.4c0-2.4,1.2-3.6,3.6-3.6l9.8,0.2V18.2z"/>
		<path id="XMLID_17_" fill="#FFFFFF" d="M101.4,35.9V16.4c0-0.4,0.2-0.7,0.7-0.7h2.6c0.4,0,0.7,0.2,0.9,0.7l8.8,17h0.3l-0.1-17.7
			h2.4l0,19.5c0,0.4-0.2,0.6-0.7,0.6h-2.5c-0.4,0-0.8-0.3-1-0.9l-8.6-16h-0.4v16.9H101.4z"/>
	</g>
	<g id="XMLID_3_">
		<path id="XMLID_14_" fill="#FFFFFF" d="M123.6,27.6v6c-0.1,1.5-0.9,2.3-2.4,2.3l-0.9,0v-1h0.9c0.9,0,1.4-0.5,1.4-1.4v-6H123.6z"/>
		<path id="XMLID_11_" fill="#FFFFFF" d="M130.2,27.7v0.9l-2.4,0c-1.2,0-1.8,0.2-1.8,0.7v0.9c0,0.4,0.5,0.7,1.3,0.9l1.1,0.3
			c1.4,0.3,2,1,2,2v0.7c0,1.3-0.8,1.9-2.6,1.9l-2.8-0.1V35l2.7,0c1.1,0,1.6-0.3,1.6-0.9v-0.7c0-0.4-0.4-0.7-1.3-1l-1.3-0.4
			c-1.2-0.3-1.8-1-1.8-1.8v-0.9c0-1.1,0.9-1.7,2.8-1.7L130.2,27.7z"/>
		<path id="XMLID_6_" fill="#FFFFFF" d="M137.2,35.7c-0.8,0.1-1.7,0.2-2.8,0.2c-1.9,0-2.9-1.4-2.9-4.2c0-2.8,1-4.2,2.9-4.2
			c1,0,2,0.1,2.8,0.2v0.9c-0.8-0.1-1.7-0.1-2.8-0.1c-1.3,0-2,1.1-2,3.2c0,2.1,0.7,3.2,2,3.2c1,0,2-0.1,2.8-0.1V35.7z"/>
		<path id="XMLID_4_" fill="#FFFFFF" d="M139,34.9v1h-1v-1H139z"/>
	</g>
</g>
</svg>
