<svg id="Layer_1" data-name="Layer 1" xmlns="http://www.w3.org/2000/svg" viewBox="0 0 240 240"><defs><style>.cls-1{fill:#ed3345;}.cls-2{fill:none;stroke:#e4243a;stroke-miterlimit:10;stroke-width:3px;}</style></defs><title>Web</title><path class="cls-1" d="M174,73H67.34a7.51,7.51,0,0,0-7.5,7.5v72.41a7.51,7.51,0,0,0,7.5,7.5h36.09L102,172.1h-6a1.78,1.78,0,1,0,0,3.57h49.54a1.78,1.78,0,1,0,0-3.57h-6L138,160.43H174a7.51,7.51,0,0,0,7.5-7.5V80.52A7.51,7.51,0,0,0,174,73ZM105.56,172.1,107,160.43h6.56l.64,2.57a6.66,6.66,0,0,0,12.93,0l.64-2.57h6.56l1.46,11.68Zm11.7-11.68h6.87l-.43,1.71a3.1,3.1,0,0,1-6,0Zm60.72-7.5h0a3.94,3.94,0,0,1-3.93,3.93H67.34a3.94,3.94,0,0,1-3.93-3.93V80.52a3.94,3.94,0,0,1,3.93-3.93H174A3.94,3.94,0,0,1,178,80.52v72.41Z"/><path class="cls-1" d="M160.71,80.64H69.25a1.78,1.78,0,0,0-1.78,1.78V151a1.78,1.78,0,0,0,1.78,1.78h3.81a1.78,1.78,0,0,0,0-3.57H71v-65h89.68a1.78,1.78,0,0,0,0-3.57Z"/><path class="cls-1" d="M172.14,80.64h-3.81a1.78,1.78,0,1,0,0,3.57h2v65H80.68a1.78,1.78,0,1,0,0,3.57h91.46a1.78,1.78,0,0,0,1.78-1.78V82.43A1.78,1.78,0,0,0,172.14,80.64Z"/><path class="cls-2" d="M215.77,186l-86.56,49.74a18,18,0,0,1-18,0L24.86,185.64a18,18,0,0,1-9-15.61l.2-99.83a18,18,0,0,1,9-15.57L111.67,4.89a18,18,0,0,1,18,0L216,55a18,18,0,0,1,9,15.61l-.2,99.83A18,18,0,0,1,215.77,186Z"/></svg>