<svg id="Layer_1" data-name="Layer 1" xmlns="http://www.w3.org/2000/svg" viewBox="0 0 240 240"><defs><style>.cls-1{fill:#e32438;}.cls-2{fill:none;stroke:#e4243a;stroke-miterlimit:10;stroke-width:3px;}</style></defs><title>Mobile</title><g id="_Group_" data-name="&lt;Group&gt;"><g id="_Group_2" data-name="&lt;Group&gt;"><path class="cls-1" d="M141.28,69.81h-46a8.05,8.05,0,0,0-8,8V171.3a8.05,8.05,0,0,0,8,8h46a8.05,8.05,0,0,0,8-8V77.85A8.05,8.05,0,0,0,141.28,69.81ZM90.91,84.42h54.77v69.37H90.91Zm4.39-11h46a4.4,4.4,0,0,1,4.39,4.39v2.91H90.91V77.85A4.4,4.4,0,0,1,95.3,73.46Zm46,102.23h-46a4.4,4.4,0,0,1-4.39-4.39V157.44h54.77V171.3A4.4,4.4,0,0,1,141.28,175.69Z"/></g><g id="_Group_3" data-name="&lt;Group&gt;"><path class="cls-1" d="M118.29,159.26a7.3,7.3,0,1,0,7.3,7.3A7.31,7.31,0,0,0,118.29,159.26Zm0,11a3.65,3.65,0,1,1,3.65-3.65A3.65,3.65,0,0,1,118.29,170.22Z"/></g><g id="_Group_4" data-name="&lt;Group&gt;"><path class="cls-1" d="M111,78.94h7.3a1.83,1.83,0,1,0,0-3.65H111a1.83,1.83,0,1,0,0,3.65Z"/></g><g id="_Group_5" data-name="&lt;Group&gt;"><path class="cls-1" d="M123.77,78.94h1.83a1.83,1.83,0,0,0,0-3.65h-1.83a1.83,1.83,0,1,0,0,3.65Z"/></g><g id="_Group_6" data-name="&lt;Group&gt;"><path class="cls-1" d="M102.69,127.82l-.08.08,1.78,1.29.18.12c.35.25.71.49,1.08.72l.68.41c.35.2.7.41,1.06.59s.61.3.92.44.61.29.92.42c.61.26,1.23.48,1.86.68l.67.19c.47.14.95.26,1.43.37l.75.15c.49.09,1,.17,1.49.23l.68.08c.73.07,1.45.11,2.19.11s1.46,0,2.19-.11l.68-.08c.5-.06,1-.14,1.49-.23l.74-.15c.49-.11,1-.23,1.45-.37l.65-.18c.63-.2,1.26-.43,1.87-.68.3-.12.59-.27.89-.41s.64-.3,1-.46.68-.37,1-.57l.72-.44c.35-.22.7-.45,1-.69l.19-.13,1.85-1.33-.09-.08a23.73,23.73,0,1,0-31.23,0Zm10.71,1.61a19.64,19.64,0,0,1-2.14-.67l-.25-.09a19.48,19.48,0,0,1-2.12-1l4.43-2.42a4.23,4.23,0,0,0,2.21-3.72v-3.08l-.43-.51a11.39,11.39,0,0,1-2-4.19l-.24-.85-.62-.4.06-2.76.6-.54V104.6l0-.24a3.45,3.45,0,0,1,.78-2.4c.85-1,2.47-1.49,4.68-1.49s3.8.5,4.66,1.46a3.41,3.41,0,0,1,.81,2.43l0,4.07.06.92.6.54v2.65a.17.17,0,0,1-.12.14l-.91.28-.29.91a12.73,12.73,0,0,1-1.72,3.46,7.15,7.15,0,0,1-.47.61l-.46.52v3.17a4.21,4.21,0,0,0,2.34,3.79l4.72,2.36-.08,0a18.88,18.88,0,0,1-2,.88l-.35.13a20.09,20.09,0,0,1-2.09.64H123a20.46,20.46,0,0,1-9.55,0Zm4.89-39.53A20.07,20.07,0,0,1,131,125.47l-.27-.16-6.32-3.16a.59.59,0,0,1-.33-.52V119.8l.26-.36a16.1,16.1,0,0,0,2-3.7,3.77,3.77,0,0,0,1.76-3.2v-2.65a3.79,3.79,0,0,0-.66-2.13V104.7a7.06,7.06,0,0,0-1.67-5.14c-1.59-1.81-4.09-2.73-7.43-2.73s-5.84.92-7.43,2.73a7.07,7.07,0,0,0-1.67,5.14v3.07a3.79,3.79,0,0,0-.66,2.13v2.65a3.79,3.79,0,0,0,1.12,2.69,15.27,15.27,0,0,0,2.19,4.53v1.81a.58.58,0,0,1-.3.51l-5.9,3.22-.2.12a20.07,20.07,0,0,1,12.8-35.54Z"/></g><g id="_Group_7" data-name="&lt;Group&gt;"><path class="cls-1" d="M107.34,137.36H92.73V152h51.12v-14.6Zm-11,11V141h7.3v7.3Zm43.81,0H107.34V141H140.2Z"/></g></g><path class="cls-2" d="M214.31,186.34,127.57,236.2a18,18,0,0,1-18,0L23,186a18,18,0,0,1-9-15.61l.2-100a18,18,0,0,1,9-15.57L110,4.89a18,18,0,0,1,18,0l86.54,50.2a18,18,0,0,1,9,15.61l-.2,100A18,18,0,0,1,214.31,186.34Z"/></svg>