<svg id="Layer_1" data-name="Layer 1" xmlns="http://www.w3.org/2000/svg" viewBox="0 0 240 240"><defs><style>.cls-1{fill:#e32438;}.cls-2{fill:none;stroke:#e4243a;stroke-miterlimit:10;stroke-width:3px;}</style></defs><title>IT Consultancy</title><g id="_Group_" data-name="&lt;Group&gt;"><g id="_Group_2" data-name="&lt;Group&gt;"><path class="cls-1" d="M150,131.61a36.07,36.07,0,1,0-57.47.06,59.72,59.72,0,0,1,12.3,35.92v13.95A11.23,11.23,0,0,0,116,192.76h10.44a11.23,11.23,0,0,0,11.22-11.22V167.59A59.17,59.17,0,0,1,150,131.61Zm-53.79-2.74a31.15,31.15,0,0,1-6.41-19.32,31.63,31.63,0,0,1,31-31.15,31.45,31.45,0,0,1,25.53,50.42A63.84,63.84,0,0,0,133,166.71h-23.6A64.44,64.44,0,0,0,96.18,128.86ZM109.42,180v-1.87l23.63,2.71v.73a6.58,6.58,0,0,1-.1,1.13Zm0-6.53v-2.1h23.63v4.81Zm6.6,14.69a6.6,6.6,0,0,1-5.78-3.42L130.15,187a6.56,6.56,0,0,1-3.69,1.13H116Z"/></g><g id="_Group_3" data-name="&lt;Group&gt;"><path class="cls-1" d="M98.35,113.31a23.74,23.74,0,0,1-.26-3.69,2.31,2.31,0,1,0-4.62,0,28.32,28.32,0,0,0,.31,4.42,2.31,2.31,0,0,0,2.28,2l.34,0a2.31,2.31,0,0,0,1.95-2.63Z"/></g><g id="_Group_4" data-name="&lt;Group&gt;"><path class="cls-1" d="M112,148.44a2.31,2.31,0,0,0,2.2-3,73.37,73.37,0,0,0-11.35-21.58,23.4,23.4,0,0,1-2.16-3.42,2.31,2.31,0,0,0-4.11,2.12,28.06,28.06,0,0,0,2.59,4.09,68.73,68.73,0,0,1,10.64,20.22,2.31,2.31,0,0,0,2.2,1.59Z"/></g><g id="_Group_5" data-name="&lt;Group&gt;"><path class="cls-1" d="M145.51,117.75a2.31,2.31,0,0,0-3,1.21,23.13,23.13,0,0,1-2.82,4.82,2.31,2.31,0,1,0,3.69,2.79,27.79,27.79,0,0,0,3.38-5.79,2.31,2.31,0,0,0-1.21-3Z"/></g><g id="_Group_6" data-name="&lt;Group&gt;"><path class="cls-1" d="M121.22,86.71a23.15,23.15,0,0,1,23.12,23.12c0,.72,0,1.46-.1,2.17a2.31,2.31,0,0,0,2.09,2.51h.21a2.31,2.31,0,0,0,2.3-2.1c.08-.86.12-1.73.12-2.59a27.78,27.78,0,0,0-27.75-27.75,2.31,2.31,0,0,0,0,4.62Z"/></g><g id="_Group_7" data-name="&lt;Group&gt;"><path class="cls-1" d="M121.22,69.77a2.31,2.31,0,0,0,2.31-2.31V54.51a2.31,2.31,0,0,0-4.62,0V67.46A2.31,2.31,0,0,0,121.22,69.77Z"/></g><g id="_Group_8" data-name="&lt;Group&gt;"><path class="cls-1" d="M97.82,74.34a2.31,2.31,0,1,0,4-2.31L95.36,60.82a2.31,2.31,0,0,0-4,2.31Z"/></g><g id="_Group_9" data-name="&lt;Group&gt;"><path class="cls-1" d="M170.63,136.1l-11.21-6.47a2.31,2.31,0,1,0-2.31,4l11.21,6.47a2.31,2.31,0,0,0,2.31-4Z"/></g><g id="_Group_10" data-name="&lt;Group&gt;"><path class="cls-1" d="M71.8,84.38,83,90.85a2.31,2.31,0,1,0,2.31-4L74.11,80.37a2.31,2.31,0,1,0-2.31,4Z"/></g><g id="_Group_11" data-name="&lt;Group&gt;"><path class="cls-1" d="M176.94,107.92H164a2.31,2.31,0,1,0,0,4.62h12.95a2.31,2.31,0,1,0,0-4.62Z"/></g><g id="_Group_12" data-name="&lt;Group&gt;"><path class="cls-1" d="M80.75,110.24a2.31,2.31,0,0,0-2.31-2.31H65.49a2.31,2.31,0,1,0,0,4.62H78.44A2.31,2.31,0,0,0,80.75,110.24Z"/></g><g id="_Group_13" data-name="&lt;Group&gt;"><path class="cls-1" d="M158.27,91.16a2.3,2.3,0,0,0,1.15-.31l11.21-6.47a2.31,2.31,0,0,0-2.31-4l-11.21,6.47a2.31,2.31,0,0,0,1.16,4.32Z"/></g><g id="_Group_14" data-name="&lt;Group&gt;"><path class="cls-1" d="M83,129.63,71.8,136.1a2.31,2.31,0,1,0,2.31,4l11.21-6.47a2.31,2.31,0,1,0-2.31-4Z"/></g><g id="_Group_15" data-name="&lt;Group&gt;"><path class="cls-1" d="M141.45,75.19a2.31,2.31,0,0,0,3.16-.85l6.47-11.21a2.31,2.31,0,0,0-4-2.31L140.6,72a2.31,2.31,0,0,0,.85,3.16Z"/></g></g><path class="cls-2" d="M215.38,185.86l-86.52,49.72a18,18,0,0,1-18,0L24.54,185.48a18,18,0,0,1-9-15.61l.2-99.79a18,18,0,0,1,9-15.57L111.32,4.79a18,18,0,0,1,18,0l86.32,50.07a18,18,0,0,1,9,15.61l-.2,99.79A18,18,0,0,1,215.38,185.86Z"/></svg>