<svg id="Layer_1" data-name="Layer 1" xmlns="http://www.w3.org/2000/svg" viewBox="0 0 240 240"><defs><style>.cls-1{fill:#e32438;}.cls-2{fill:none;stroke:#e4243a;stroke-miterlimit:10;stroke-width:3px;}</style></defs><title>HR Hiring</title><g id="_Group_" data-name="&lt;Group&gt;"><g id="_Group_2" data-name="&lt;Group&gt;"><path class="cls-1" d="M157.07,145.21l-.21,0-14.06-2.11c-2.27-1.47-2.49-5.12-2.49-9.07a26,26,0,0,0,7.21-18.14v-.58a16,16,0,0,0,5.41-12V92.42a16.13,16.13,0,0,0-16.11-16.11H113.39a7.11,7.11,0,0,0-6.91,5.5,12.52,12.52,0,0,0-11,12.41v9a16,16,0,0,0,5.41,12v.58A26,26,0,0,0,108.09,134c0,4-.22,7.6-2.49,9.07l-14.06,2.11-.21,0a13.6,13.6,0,0,0-7.61,5.55,15.36,15.36,0,0,0-2.67,8.57v7a5.56,5.56,0,0,0,5.79,5.28h74.71a5.56,5.56,0,0,0,5.79-5.28v-7a15.36,15.36,0,0,0-2.67-8.57,13.59,13.59,0,0,0-7.61-5.55ZM124.2,141A22,22,0,0,0,137,136.84c.16,3.08.8,6.5,3.31,8.57-1.36,6.9-8.09,12-16.09,12s-14.74-5.1-16.09-12c2.51-2.06,3.15-5.48,3.31-8.57A22,22,0,0,0,124.2,141Zm-19.94-26.31a1.81,1.81,0,0,0,0-.31V105a5.53,5.53,0,0,1,5.52-5.52h30.64a1.69,1.69,0,1,0,0-3.38H109.78a8.91,8.91,0,0,0-8.9,8.9v5.09a12.68,12.68,0,0,1-2-6.89v-9A9.13,9.13,0,0,1,108,85.09a1.69,1.69,0,0,0,1.69-1.69,3.72,3.72,0,0,1,3.72-3.72h23.43a12.74,12.74,0,0,1,12.73,12.73v10.81a12.67,12.67,0,0,1-2,6.89v-6.89a1.69,1.69,0,1,0-3.38,0v12.62c0,12-8.94,21.74-19.94,21.74s-19.94-9.75-19.94-21.74v-1.2ZM164,166.31a2.23,2.23,0,0,1-2.41,1.9H86.85a2.23,2.23,0,0,1-2.41-1.9v-7c0-4.28,2.65-9.36,7.71-10.83l12.75-1.91c1.89,8.21,9.88,14.21,19.3,14.21s17.41-6,19.3-14.21l12.75,1.91C161.31,150,164,155,164,159.33v7Z"/></g><g id="_Group_3" data-name="&lt;Group&gt;"><path class="cls-1" d="M77.34,152H71c-.55,0-1-.33-1-.63v-4.52a6.72,6.72,0,0,1,4.52-6.42l9.2-1.38.12,0h.05l.18-.06,0,0,.14-.07h0l0,0,0,0c2-1.17,2.76-3.28,3-5.35a14.72,14.72,0,0,0,14.14.54,1.69,1.69,0,1,0-1.51-3,11.32,11.32,0,0,1-5.08,1.2c-6.78,0-12.3-6-12.3-13.47V111.5a3,3,0,0,1,3-3H90a1.69,1.69,0,1,0,0-3.38H85.61a6.36,6.36,0,0,0-6.35,6.35v.89a7.65,7.65,0,0,1-.23-1.84v-5.83a5.31,5.31,0,0,1,5.31-5.31A1.69,1.69,0,0,0,86,97.72a1.81,1.81,0,0,1,1.81-1.81H90a1.69,1.69,0,1,0,0-3.38H87.84a5.2,5.2,0,0,0-4.94,3.62,8.7,8.7,0,0,0-7.24,8.57v5.83a11,11,0,0,0,3.6,8.15h0a17.41,17.41,0,0,0,4.87,12.19c0,2.15-.18,4.07-1.24,4.87l-9,1.34-.21,0a10.14,10.14,0,0,0-7.09,9.71v4.52a4.19,4.19,0,0,0,4.34,4h6.36a1.69,1.69,0,0,0,0-3.38Z"/></g><g id="_Group_4" data-name="&lt;Group&gt;"><path class="cls-1" d="M174.68,137.15l-.21,0-9-1.34c-1.06-.79-1.23-2.72-1.25-4.87a17.41,17.41,0,0,0,4.87-12.19h0a11,11,0,0,0,3.6-8.15v-9.11a8.91,8.91,0,0,0-8.9-8.9h-5.41a1.69,1.69,0,0,0,0,3.38h5.41a5.53,5.53,0,0,1,5.52,5.52v9.12a7.67,7.67,0,0,1-.23,1.84v-.89a6.36,6.36,0,0,0-6.35-6.35h-4.35a1.69,1.69,0,0,0,0,3.38h4.35a3,3,0,0,1,3,3v7.21c0,7.43-5.52,13.47-12.3,13.47a11.31,11.31,0,0,1-5.08-1.2,1.69,1.69,0,1,0-1.51,3,14.72,14.72,0,0,0,14.14-.54c.24,2.07,1,4.18,3,5.35l0,0,0,0h0l.14.07,0,0,.18.06h.05l.12,0,9.2,1.38a6.72,6.72,0,0,1,4.52,6.42v4.52c0,.3-.41.63-1,.63h-6.36a1.69,1.69,0,0,0,0,3.38h6.36a4.19,4.19,0,0,0,4.34-4v-4.52a10.14,10.14,0,0,0-7.08-9.71Z"/></g></g><path class="cls-2" d="M216.77,186.32,130,236.17a18,18,0,0,1-18,0l-86.55-50.2a18,18,0,0,1-9-15.61l.2-100.05a18,18,0,0,1,9-15.57L112.48,4.86a18,18,0,0,1,18,0L217,55.09a18,18,0,0,1,9,15.61l-.2,100.05A18,18,0,0,1,216.77,186.32Z"/></svg>