<svg id="Layer_1" data-name="Layer 1" xmlns="http://www.w3.org/2000/svg" viewBox="0 0 240 240"><defs><style>.cls-1{fill:#ed3345;}.cls-2{fill:none;stroke:#e4243a;stroke-miterlimit:10;stroke-width:3px;}</style></defs><title>Expertise</title><path class="cls-1" d="M120.52,95.08a8.74,8.74,0,0,0-3.78-3l-1-.38V74h23.73a1.64,1.64,0,0,0,1.11-2.85L134.45,65l-1.07-1.07,1.07-1.07,6.22-6.22a1.64,1.64,0,0,0-1.16-2.8H114.14a1.64,1.64,0,0,0-1.64,1.64V91.75l-1,.38a8.72,8.72,0,0,0-3.78,2.95L62.08,156a1.64,1.64,0,0,0,1.31,2.62H164.88a1.64,1.64,0,0,0,1.31-2.62Zm-4.75-25.86V57.11h19.78L133,59.7l-3.07,3.07a1.64,1.64,0,0,0,0,2.32L133,68.15l2.59,2.59H115.78ZM95.36,117.07l15-20a4.38,4.38,0,0,1,7.52,0l15,20,.75,1-.84.93-6.74,7.45L125,127.69l-1.13-1.24-8.48-9.37a1.64,1.64,0,0,0-2.43,0l-8.48,9.37-1.13,1.24-1.13-1.24L95.45,119l-.84-.93Zm63.21,38.25H66.67l1.82-2.43,23-30.67,1.1-1.47,1.24,1.37,8.26,9.13a1.64,1.64,0,0,0,2.43,0l8.48-9.37,1.13-1.24,1.13,1.24,8.48,9.37a1.64,1.64,0,0,0,2.43,0l8.26-9.13,1.24-1.37,1.1,1.47,23,30.67,1.82,2.43Z"/><path class="cls-2" d="M211.77,186.27l-86.42,49.67a18,18,0,0,1-18,0l-86.22-50a18,18,0,0,1-9-15.61l.2-99.67a18,18,0,0,1,9-15.57L107.81,5.37a18,18,0,0,1,18,0l86.22,50A18,18,0,0,1,221,71l-.2,99.67A18,18,0,0,1,211.77,186.27Z"/></svg>