<?xml version="1.0" encoding="utf-8"?>
<!-- Generator: Adobe Illustrator 19.0.0, SVG Export Plug-In . SVG Version: 6.00 Build 0)  -->
<svg version="1.0" id="Layer_1" xmlns="http://www.w3.org/2000/svg" xmlns:xlink="http://www.w3.org/1999/xlink" x="0px" y="0px"
	 viewBox="0 0 30.6 32.5" enable-background="new 0 0 30.6 32.5" xml:space="preserve">
<g id="XMLID_30_">
	<path id="XMLID_70_" fill="#FFFFFF" d="M17,18.1c-0.4,0-1,0.2-1,0.6V16h-1v7h1v-0.1c0,0.4,0.7,0.6,1,0.6c0.4,0,0.7-0.2,0.8-0.6
		c0.1-0.2,0.1-0.6,0.1-1.1v-2.1c0-0.5-0.1-0.8-0.1-1.1C17.7,18.3,17.4,18.1,17,18.1z M17,21.9c0,0.5-0.2,0.7-0.5,0.7
		c-0.2,0-0.5-0.1-0.5-0.2v-3.2c0-0.2,0.4-0.2,0.5-0.2c0.3,0,0.5,0.2,0.5,0.7V21.9z"/>
	<path id="XMLID_71_" fill="#FFFFFF" d="M13,22.2c0,0.3-0.2,0.4-0.4,0.4c-0.1,0,0.1-0.1,0.1-0.2c0,0,0.3-0.1,0.3-0.4v-4h-1v4.3
		c0,0.4-0.2,0.6-0.1,0.8c0.1,0.3,0,0.4,0.3,0.4c0.4,0,0.8-0.2,0.8-0.6V23h1v-5h-1V22.2z"/>
	<path id="XMLID_72_" fill="#FFFFFF" d="M14.5,13.2c0.3,0,0.5-0.2,0.5-0.7v-2.2c0-0.5-0.2-0.7-0.5-0.7c-0.3,0-0.5,0.2-0.5,0.7v2.2
		C14,13,14.2,13.2,14.5,13.2z"/>
	<polygon id="XMLID_73_" fill="#FFFFFF" points="8,17 9,17 9,23 10,23 10,17 11,17 11,16 8,16 	"/>
	<path id="XMLID_76_" fill="#FFFFFF" d="M27.2,6.2l-9.7-5.6c-1.4-0.8-3.8-0.8-5.2,0L2.6,6.2C1.2,7,0,9.1,0,10.7v11.1
		c0,1.7,1.2,3.7,2.6,4.5l9.6,5.6c1.4,0.8,3.8,0.8,5.2,0l9.8-5.6c1.4-0.8,2.8-2.8,2.8-4.5V10.7C30,9.1,28.7,7,27.2,6.2z M16,9h1v3.6
		c0,0.2,0.2,0.3,0.2,0.4c0,0.1,0.1,0.2,0.2,0.2c0.2,0,0.6-0.1,0.6-0.5V9h1v5h-1v-0.5c0,0.4-0.6,0.7-1,0.7c-0.3,0-0.7-0.1-0.8-0.4
		c-0.1-0.2-0.2-0.4-0.2-0.8V9z M13,10.4c0-0.6,0-1,0.2-1.3c0.3-0.4,0.6-0.5,1.1-0.5c0.5,0,1,0.2,1.3,0.5c0.2,0.3,0.5,0.7,0.5,1.3
		v1.9c0,0.6-0.3,1-0.5,1.3c-0.3,0.4-0.7,0.5-1.2,0.5c-0.5,0-0.8-0.2-1.1-0.5C13,13.3,13,12.9,13,12.3V10.4z M10.2,7l0.8,2.8L11.7,7
		h1.1L11,11.1V14h-1v-2.9c0-0.5-0.1-1.2-0.5-2.2C9.3,8.3,9.3,8,9,7H10.2z M22.5,23.9c-0.2,0.8-0.9,1.5-1.7,1.6c-2,0.2-4,0.2-5.9,0.2
		c-2,0-4,0-5.9-0.2c-0.8-0.1-1.5-0.7-1.7-1.6c-0.3-1.2-0.3-2.5-0.3-3.7c0-1.2,0-2.5,0.3-3.8c0.2-0.8,0.9-1.5,1.7-1.6
		c2-0.2,4-0.2,5.9-0.2c2,0,4,0,5.9,0.2c0.8,0.1,1.5,0.7,1.7,1.6c0.3,1.2,0.3,2.5,0.3,3.8C22.8,21.4,22.8,22.7,22.5,23.9z"/>
	<path id="XMLID_82_" fill="#FFFFFF" d="M20.1,18.1c-0.5,0-0.7,0.2-1,0.5c-0.2,0.3-0.1,0.7-0.1,1.2v1.9c0,0.6,0,1,0.2,1.2
		c0.3,0.4,0.6,0.5,1.1,0.5c0.5,0,0.9-0.2,1.1-0.6c0.1-0.2,0.4-0.4,0.4-0.6c0-0.1,0.2-0.3,0.2-0.6V22h-1.4c0,0,0,0.4,0,0.4
		c-0.1,0.3,0,0.3-0.3,0.3c-0.3,0-0.3-0.4-0.3-0.8V21h2v-1.2c0-0.6-0.3-1-0.5-1.2C21.2,18.2,20.6,18.1,20.1,18.1z M20.6,20.1h-1v-0.5
		c0-0.5,0.2-0.7,0.5-0.7c0.3,0,0.5,0.2,0.5,0.7V20.1z"/>
</g>
<path id="XMLID_44_" fill="#FFFFFF" d="M41.5-44.5c0-1.7,1.2-3.7,2.6-4.5l9.6-5.6c1.4-0.8,3.8-0.8,5.2,0l9.6,5.6
	c1.4,0.8,2.6,2.8,2.6,4.5v11.1c0,1.7-1.2,3.7-2.6,4.5l-9.6,5.6c-1.4,0.8-3.8,0.8-5.2,0l-9.6-5.6c-1.4-0.8-2.6-2.8-2.6-4.5V-44.5z"/>
<g id="XMLID_40_">
	<circle id="XMLID_43_" fill="#2D2D2D" cx="50.1" cy="-45.1" r="2"/>
	<rect id="XMLID_42_" x="48.4" y="-41.7" fill="#2D2D2D" width="3.4" height="10.9"/>
	<path id="XMLID_41_" fill="#2D2D2D" d="M60.4-41.9c-1.6,0-2.8,0.9-3.2,1.8h0v-1.5h-3.3l0,0v10.9h3.4v-5.4c0-1.4,0.3-2.8,2-2.8
		c1.7,0,1.8,1.6,1.8,2.9v5.3h3.4v-6C64.5-39.7,63.9-41.9,60.4-41.9z"/>
</g>
<path id="XMLID_39_" fill="#FFFFFF" d="M81.5-44.5c0-1.7,1.2-3.7,2.6-4.5l9.6-5.6c1.4-0.8,3.8-0.8,5.2,0l9.6,5.6
	c1.4,0.8,2.6,2.8,2.6,4.5v11.1c0,1.7-1.2,3.7-2.6,4.5l-9.6,5.6c-1.4,0.8-3.8,0.8-5.2,0l-9.6-5.6c-1.4-0.8-2.6-2.8-2.6-4.5V-44.5z"/>
<g id="XMLID_28_">
	<g id="XMLID_29_">
		<path id="XMLID_38_" fill="#2D2D2D" d="M103.8-31.8c0.4,0,0.8-0.1,1.1-0.4l-5.1-5.1c-0.1,0.1-0.2,0.2-0.4,0.3
			c-0.4,0.3-0.7,0.5-0.9,0.7c-0.2,0.2-0.6,0.3-1,0.5c-0.4,0.2-0.8,0.2-1.1,0.2h0h0c-0.3,0-0.7-0.1-1.1-0.2c-0.4-0.2-0.7-0.3-1-0.5
			c-0.2-0.2-0.6-0.4-0.9-0.7c-0.1-0.1-0.2-0.2-0.4-0.3l-5.1,5.1c0.3,0.3,0.7,0.4,1.1,0.4H103.8z"/>
		<path id="XMLID_37_" fill="#2D2D2D" d="M88.3-40.6c-0.4-0.3-0.7-0.6-1-0.9v7.8l4.5-4.5C90.9-38.8,89.7-39.6,88.3-40.6z"/>
		<path id="XMLID_33_" fill="#2D2D2D" d="M104.4-40.6c-1.4,0.9-2.6,1.7-3.5,2.4l4.5,4.5v-7.8C105.1-41.1,104.8-40.8,104.4-40.6z"/>
		<path id="XMLID_32_" fill="#2D2D2D" d="M103.8-46.1H88.9c-0.5,0-0.9,0.2-1.2,0.5c-0.3,0.4-0.4,0.8-0.4,1.3c0,0.4,0.2,0.9,0.6,1.4
			c0.4,0.5,0.8,0.9,1.2,1.2c0.2,0.2,0.9,0.6,2.1,1.4c0.6,0.4,1.2,0.8,1.6,1.1c0.4,0.3,0.7,0.5,1,0.7c0,0,0.1,0.1,0.2,0.1
			c0.1,0.1,0.2,0.1,0.3,0.2c0.2,0.2,0.4,0.3,0.5,0.4c0.1,0.1,0.3,0.2,0.5,0.3c0.2,0.1,0.4,0.2,0.6,0.3C96-37,96.2-37,96.3-37h0h0
			c0.2,0,0.3,0,0.5-0.1c0.2-0.1,0.4-0.2,0.6-0.3c0.2-0.1,0.4-0.2,0.5-0.3c0.1-0.1,0.3-0.2,0.5-0.4c0.1-0.1,0.2-0.1,0.3-0.2
			c0.1,0,0.1-0.1,0.2-0.1c0.2-0.2,0.6-0.4,1-0.7c0.8-0.6,2.1-1.4,3.7-2.6c0.5-0.3,0.9-0.8,1.2-1.2c0.3-0.5,0.5-1,0.5-1.5
			c0-0.4-0.2-0.8-0.5-1.1C104.6-45.9,104.2-46.1,103.8-46.1z"/>
	</g>
</g>
</svg>
